<svg xmlns="http://www.w3.org/2000/svg" xmlns:xlink="http://www.w3.org/1999/xlink" width="164.508" height="115.118" viewBox="0 0 164.508 115.118">
  <defs>
    <radialGradient id="radial-gradient" cx="0.5" cy="0.5" r="0.5" gradientUnits="objectBoundingBox">
      <stop offset="0" stop-color="#ece0d6" stop-opacity="0.859"/>
      <stop offset="1" stop-color="#76706b" stop-opacity="0"/>
    </radialGradient>
    <linearGradient id="linear-gradient" x1="0.5" x2="0.5" y2="1.946" gradientUnits="objectBoundingBox">
      <stop offset="0" stop-color="#ebbba2"/>
      <stop offset="1" stop-color="#815141"/>
    </linearGradient>
  </defs>
  <g id="maciel-perfumaria" transform="translate(-195.717 -273.294)">
    <ellipse id="Elipse_2" data-name="Elipse 2" cx="17" cy="2" rx="17" ry="2" transform="translate(262 331.307)" fill="url(#radial-gradient)"/>
    <g id="Grupo_99" data-name="Grupo 99" transform="translate(196 273.294)">
      <path id="Caminho_158" data-name="Caminho 158" d="M36.175-114a1.7,1.7,0,0,1,1.217-.393h.758V-116H30.22L20.685-93.717l-9.9-21.881-.177-.4H3.355v1.6h.812c.837,0,1.624.276,1.719,2.276v22.366c0,.025,0,.051,0,.076v.024c-.043,1.567-.756,2.466-1.955,2.466h-.8v1.6h7.7v-1.6h-.8c-1.2,0-1.911-.9-1.954-2.468l0-.095-.019-18.59,9.962,21.386.18.386h1.8L30.21-110.4v20.092a3.851,3.851,0,0,1-.689,2.733,1.6,1.6,0,0,1-1.17.391h-.807v1.6H38.155v-1.6h-.807a1.553,1.553,0,0,1-1.163-.4,3.819,3.819,0,0,1-.7-2.731v-20.946A3.842,3.842,0,0,1,36.175-114ZM49.927-87.188h-.817c-1.05,0-1.389-.3-1.556-.525-.367-.491-.324-1.409.132-2.809l2.277-6.262h9.866l3,7.135c.36.979.409,1.663.149,2.028a1.225,1.225,0,0,1-.889.419c-.048.006-.3.014-.8.014H60.74v1.6H72.509v-1.6h-.466c-.051,0-.21-.011-.35-.026s-.268-.032-.357-.045a1.413,1.413,0,0,1-.188-.038l-.008,0c-1.083-.287-1.935-1.211-2.764-3L57.383-115.6l-.178-.4H54.779L45.255-90.3c-.86,2.154-1.853,3.114-3.22,3.114h-.768v1.6h8.659Zm4.615-22.159L59-98.76H50.7Zm33.931-7a15.567,15.567,0,0,0-7.816,1.895,15.932,15.932,0,0,0-7.759,13.2,16.287,16.287,0,0,0,3.209,10.4,13.793,13.793,0,0,0,4.175,3.549,20.839,20.839,0,0,0,9.6,2.072c.44,0,.794-.007,1.115-.022a27.132,27.132,0,0,0,5.215-.89c.508-.125,1.46-.433,2.425-.786l.341-.115,1.291-5.163.153-.635-1.441-.4-.562,1.093a10.882,10.882,0,0,1-.947,1.43,9.108,9.108,0,0,1-1.987,1.91,8.067,8.067,0,0,1-2.333,1.127,11.965,11.965,0,0,1-3.132.4,11.8,11.8,0,0,1-4.093-.706,10.755,10.755,0,0,1-1.8-.9,11.065,11.065,0,0,1-4.042-4.935,20.144,20.144,0,0,1-1.56-7.443c-.115-4.2,1.12-7.949,3.387-10.29a9.416,9.416,0,0,1,7.033-2.792,9.965,9.965,0,0,1,4.9,1.341c1.628.953,2.729,2.983,3.592,4.842l.042.091c.114.246.222.478.3.7l.156.45h1.606v-8.168H98.008a.6.6,0,0,1-.493.305,2.372,2.372,0,0,1-.606-.1c-.178-.045-.353-.095-.507-.139l-.255-.072-.168-.049c-.655-.19-1.333-.387-2-.526a24.574,24.574,0,0,0-3.714-.612C89.638-116.319,89.034-116.345,88.472-116.345Zm17.573,28.764a1.722,1.722,0,0,1-1.259.393h-.715v1.6h10.606v-1.6h-.812a1.568,1.568,0,0,1-1.159-.39,3.863,3.863,0,0,1-.689-2.733v-20.955a3.884,3.884,0,0,1,.689-2.733,1.6,1.6,0,0,1,1.143-.4h.828V-116H104.071v1.6h.806a1.605,1.605,0,0,1,1.163.388,3.827,3.827,0,0,1,.691,2.735v20.961A3.865,3.865,0,0,1,106.045-87.581Zm14.362-.005a1.649,1.649,0,0,1-1.184.4h-.8v1.6h22.089V-92.2h-1.6l-.134.3a10.025,10.025,0,0,1-1.494,2.622c-1.124,1.2-2.752,1.715-5.228,1.715h-5.672v-13.5h3.53c2.978,0,4.359.647,5.1,2.395l.275.623h1.607V-105.7h-1.6l-.27.575c-.726,1.505-2.158,2.092-5.106,2.092h-3.531v-10.987h4.769c3.609,0,5.6,1.1,6.658,3.7l.175.414h1.6V-116h-21.16v1.6h.812a1.6,1.6,0,0,1,1.165.4,3.79,3.79,0,0,1,.7,2.728v20.955A3.906,3.906,0,0,1,120.407-87.586Zm38.21.015-5.785,0v-23.692A3.883,3.883,0,0,1,153.52-114a1.6,1.6,0,0,1,1.143-.4h.828V-116H144.886v1.6h.806a1.6,1.6,0,0,1,1.163.388,3.827,3.827,0,0,1,.691,2.735v20.961a3.865,3.865,0,0,1-.687,2.731,1.723,1.723,0,0,1-1.259.393h-.715v1.6h21.951v-6.62h-1.366l-.4.909,0,.009C163.982-88.614,162.173-87.572,158.617-87.572Z" transform="translate(-3.094 184.98)" fill="url(#linear-gradient)"/>
      <path id="Caminho_159" data-name="Caminho 159" d="M4.539-23.4v2.8H3.672v-7.4H5.706a2.685,2.685,0,0,1,1.841.578A2.065,2.065,0,0,1,8.2-25.8a2.244,2.244,0,0,1-.726,1.725,2.772,2.772,0,0,1-1.96.671Zm0-3.821v3.036h.909A2.032,2.032,0,0,0,6.819-24.6a1.453,1.453,0,0,0,.472-1.159q0-1.467-1.735-1.467Zm11.9,6.62H12.514v-7.4h3.759v.785H13.381v2.463h2.675v.78H13.381v2.592h3.057Zm9.652,0H25.058l-1.239-2.076a4.521,4.521,0,0,0-.33-.493,1.884,1.884,0,0,0-.328-.333,1.136,1.136,0,0,0-.361-.188,1.486,1.486,0,0,0-.436-.059H21.65v3.15h-.868v-7.4h2.21a3.15,3.15,0,0,1,.9.121,2,2,0,0,1,.713.369,1.716,1.716,0,0,1,.472.617,2.046,2.046,0,0,1,.17.865,2.083,2.083,0,0,1-.116.71,1.854,1.854,0,0,1-.33.576,2,2,0,0,1-.516.431,2.636,2.636,0,0,1-.679.276v.021a1.562,1.562,0,0,1,.323.188,1.776,1.776,0,0,1,.261.25,3.318,3.318,0,0,1,.245.328q.121.183.271.426Zm-4.441-6.62v2.685h1.177a1.786,1.786,0,0,0,.6-.1,1.393,1.393,0,0,0,.478-.281,1.276,1.276,0,0,0,.315-.449,1.5,1.5,0,0,0,.114-.6,1.161,1.161,0,0,0-.385-.927,1.653,1.653,0,0,0-1.113-.333Zm12.136,0H30.894v2.561h2.675v.78H30.894V-20.6h-.868v-7.4h3.759Zm9.74,3.625q0,3.119-2.814,3.119-2.7,0-2.7-3v-4.529h.868v4.472q0,2.277,1.921,2.277,1.854,0,1.854-2.2v-4.549h.868Zm12.317,3h-.862V-25.57q0-.589.072-1.441h-.021a4.606,4.606,0,0,1-.222.718L52.28-20.6h-.423l-2.525-5.649a4.426,4.426,0,0,1-.222-.759h-.021q.041.444.041,1.451V-20.6h-.837v-7.4H49.44l2.272,5.164a6.612,6.612,0,0,1,.341.888h.031q.222-.609.356-.909l2.319-5.143h1.084Zm10.6,0h-.96L64.7-22.679h-3.14L60.817-20.6h-.966l2.84-7.4h.9Zm-2.029-2.856-1.162-3.155a3.022,3.022,0,0,1-.114-.5h-.021a2.766,2.766,0,0,1-.119.5l-1.152,3.155ZM75.757-20.6H74.725l-1.239-2.076a4.521,4.521,0,0,0-.33-.493,1.884,1.884,0,0,0-.328-.333,1.136,1.136,0,0,0-.361-.188,1.486,1.486,0,0,0-.436-.059h-.713v3.15h-.868v-7.4h2.21a3.15,3.15,0,0,1,.9.121,2,2,0,0,1,.713.369,1.716,1.716,0,0,1,.472.617,2.046,2.046,0,0,1,.17.865,2.083,2.083,0,0,1-.116.71,1.854,1.854,0,0,1-.33.576,2,2,0,0,1-.516.431,2.636,2.636,0,0,1-.679.276v.021a1.562,1.562,0,0,1,.323.188,1.776,1.776,0,0,1,.261.25,3.317,3.317,0,0,1,.245.328q.121.183.271.426Zm-4.441-6.62v2.685h1.177a1.786,1.786,0,0,0,.6-.1,1.393,1.393,0,0,0,.478-.281,1.276,1.276,0,0,0,.315-.449,1.5,1.5,0,0,0,.114-.6,1.161,1.161,0,0,0-.385-.927,1.653,1.653,0,0,0-1.113-.333Zm9.245,6.62h-.868v-7.4h.868Zm10.6,0H90.2l-.785-2.076h-3.14L85.535-20.6h-.966l2.84-7.4h.9Zm-2.029-2.856-1.162-3.155a3.022,3.022,0,0,1-.114-.5h-.021a2.766,2.766,0,0,1-.119.5l-1.152,3.155Z" transform="translate(35.106 135.597)" fill="#825242"/>
      <path id="Caminho_2" data-name="Caminho 2" d="M-26.478,1.1-58.38.561v1Z" transform="translate(190.603 110.087)" fill="#825242"/>
      <path id="Caminho_5" data-name="Caminho 5" d="M-61.244.689-29.849,0V1.144Z" transform="translate(61.244 110.573)" fill="#825242"/>
      <path id="União_1" data-name="União 1" d="M58.112,18.51a16.6,16.6,0,0,1-1.828-.2,14.2,14.2,0,0,1-3.665-1.067,13.2,13.2,0,0,1-3.069-2.114,14.254,14.254,0,0,1-1.233-1.246L0,13.854V12.745H39.953l4.7-3.791A16.339,16.339,0,0,1,45.76,6.588a15.556,15.556,0,0,1,1.408-2.1,10.673,10.673,0,0,1,2-1.946A11.25,11.25,0,0,1,51.67,1.2,17.589,17.589,0,0,1,54.188.432,19.283,19.283,0,0,1,56.911,0V0a22.1,22.1,0,0,1-1.165,2.612,18.869,18.869,0,0,1-1.4,2.29,11,11,0,0,1-1.9,2.073,9.207,9.207,0,0,1-2.275,1.347,12.512,12.512,0,0,1-2.237.693,12.847,12.847,0,0,1-2.383.294l-4.4,3.7h7.165a18.606,18.606,0,0,1,2.012.354,13.383,13.383,0,0,1,3.758,1.413,14.561,14.561,0,0,1,2.886,2.394,15.884,15.884,0,0,1,1.14,1.335h0Zm-4.884-1.978A16.233,16.233,0,0,0,56.8,17.87a9.811,9.811,0,0,0-2.81-2.35,16.874,16.874,0,0,0-4.263-1.348A26.96,26.96,0,0,0,53.228,16.532ZM47.706,8.19c.3-.077.611-.17.921-.276A11.215,11.215,0,0,0,51.7,6.322a13.128,13.128,0,0,0,2.54-2.676c.217-.3.425-.6.616-.9ZM52.6,2.078A14.611,14.611,0,0,0,49.23,4.12a12.011,12.011,0,0,0-2.508,2.986c.341-.279,1.3-1.065,2.817-2.329C50.965,3.592,52.7,2.305,53.6,1.644,53.261,1.782,52.922,1.929,52.6,2.078Zm2.257.664h0Zm4.621,10.683c-.118,0-.237,0-.355-.007a14.6,14.6,0,0,1-3.047-.491,27.644,27.644,0,0,1-2.9-.937c-1.741-.662-3.013-1.312-3.025-1.318l.009,0c.235-.093,1.488-.579,3.111-1.057,1.046-.308,2.043-.553,2.962-.729a16.6,16.6,0,0,1,3.064-.332c.125,0,.25,0,.37.007a8.978,8.978,0,0,1,2.6.483,9.107,9.107,0,0,1,1.908.921,7.651,7.651,0,0,1,1.579,1.294h0A9.437,9.437,0,0,1,64,12.341a10.853,10.853,0,0,1-1.981.746,9.874,9.874,0,0,1-2.544.339Zm-6.115-2.641c.006,0,.826.422,1.957.853a13.169,13.169,0,0,0,3.849.924c.077,0,.154,0,.229,0a6.717,6.717,0,0,0,2.928-.7,6.008,6.008,0,0,0,1.128-.7,4.886,4.886,0,0,0-1.021-.837,5.854,5.854,0,0,0-2.914-.908c-.078,0-.158,0-.239,0A20.006,20.006,0,0,0,53.358,10.784Z" transform="translate(97.801 42.293)" fill="#ebbba2" stroke="#ebbba2" stroke-width="1"/>
      <g id="Grupo_90" data-name="Grupo 90" transform="translate(61.651)">
        <g id="Grupo_1" data-name="Grupo 1">
          <path id="Caminho_39" data-name="Caminho 39" d="M0,61.323H40.882V0H0V61.323M21.325,9.68c1.487.03,2.873,1.025,4.082,1.863A7.081,7.081,0,0,1,27.85,15.1a6.177,6.177,0,0,1-.64,4.792,5.941,5.941,0,0,1-3.329,2.666c.584.567.4,1.452.442,2.211.585.054,1.567-.072,2.113,0s1.631-.272,1.719.394a16.7,16.7,0,0,1,0,2.162,14.509,14.509,0,0,1,0,2.113c-.108.675.36.892.848,1.216s.778.582,1.22.893.764.622,1.188.925.818.622,1.22.942.772.621,1.163.95.77.667,1.155,1.007.707.663,1.081,1.032.682.714,1.081,1.081.593.7,1.032,1.081A1.3,1.3,0,0,1,38.625,40c-.182.589-.175,1.24-.344,1.818s-.216,1.16-.393,1.72-.273,1.159-.461,1.7-.32,1.068-.523,1.59-.378,1.019-.587,1.526-.422,1.015-.657,1.5-.429.963-.669,1.444-.494.958-.737,1.425-.512.889-.778,1.335-.512.929-.811,1.351-.519.872-.835,1.278-.527.86-.861,1.252-.558.878-.911,1.252-.45.969-1,1.112-1.324.131-1.933.229a19.247,19.247,0,0,1-1.965.147c-.651.034-1.388.128-2.064.1-.151.015-.356.049-.541.049-.81,0-1.651-.017-2.457,0s-1.63-.024-2.411-.046-1.557-.1-2.309-.147-1.5-.217-2.241-.216-1.086-.46-1.453-1-.687-.908-1.034-1.423-.669-.944-1.006-1.451-.643-.979-.96-1.5-.639-1.038-.934-1.572-.6-1.038-.865-1.592-.554-1.083-.805-1.652-.511-1.13-.738-1.719-.473-1.175-.671-1.786-.45-1.217-.606-1.85-.372-1.295-.521-1.936-.313-1.4-.413-2.044-.4-1.553.031-2.016.735-.872,1.152-1.3.8-.827,1.228-1.228.841-.793,1.278-1.179.847-.794,1.3-1.155.871-.762,1.327-1.13.949-.683,1.417-1.04.924-.708,1.409-1.048,1.027-.661,1.536-.97c-.5-.626-.211-1.212-.295-2.015s.121-1.425,0-2.309.822-.785,1.572-.737,1.6-.036,2.359,0a4.07,4.07,0,0,1,.049-.884,2.35,2.35,0,0,1,.442-1.376,6.012,6.012,0,0,1-3.745-7.48,8.268,8.268,0,0,1,6.6-5.345A1.719,1.719,0,0,1,21.325,9.68Z" fill="none"/>
        </g>
        <g id="Grupo_2" data-name="Grupo 2" transform="translate(20.785 9.658)">
          <path id="Caminho_40" data-name="Caminho 40" d="M423,196.581c.176-.014.363,0,.541,0A1.719,1.719,0,0,0,423,196.581Z" transform="translate(-423 -196.559)" fill="none" stroke="#b8a59d" stroke-width="0.3"/>
        </g>
        <g id="Grupo_3" data-name="Grupo 3" transform="translate(2.933 9.673)">
          <path id="Caminho_41" data-name="Caminho 41" d="M74.242,211.062c-.007.178.092.786-.049.884-.76-.036-1.608.048-2.359,0s-1.694-.147-1.572.737-.084,1.507,0,2.309-.208,1.389.295,2.015c-.508.31-1.052.63-1.536.97s-.941.691-1.409,1.048-.961.672-1.417,1.04-.872.769-1.327,1.13-.865.768-1.3,1.155-.849.779-1.278,1.179-.81.8-1.228,1.228-.718.841-1.152,1.3-.131,1.374-.031,2.016.264,1.4.413,2.044.364,1.3.521,1.936.409,1.24.606,1.85.445,1.2.671,1.786.486,1.151.738,1.719.536,1.1.805,1.652.571,1.057.865,1.592.617,1.054.934,1.572.623.99.96,1.5.658.937,1.006,1.451.667.88,1.034,1.423.715,1,1.453,1,1.487.172,2.241.216,1.529.126,2.309.147,1.6.062,2.411.046,1.647,0,2.457,0c.151-.015.356-.049.54-.049.676.03,1.413-.064,2.064-.1a19.253,19.253,0,0,0,1.965-.147c.609-.1,1.381-.087,1.933-.229s.648-.739,1-1.112.577-.86.911-1.252.544-.847.861-1.252.537-.855.835-1.278.544-.906.811-1.351.535-.869.778-1.335.5-.945.737-1.425.433-.955.669-1.444.448-1,.657-1.5.383-1,.587-1.526.335-1.048.523-1.59.284-1.141.461-1.7.225-1.142.393-1.72.162-1.229.344-1.818a1.3,1.3,0,0,0-.483-1.441c-.439-.381-.633-.714-1.032-1.081s-.707-.711-1.081-1.081-.7-.691-1.081-1.032-.765-.678-1.155-1.007-.761-.629-1.163-.95-.8-.639-1.22-.942-.745-.614-1.188-.925-.733-.569-1.22-.893-.955-.541-.848-1.216a14.512,14.512,0,0,0,0-2.113,16.7,16.7,0,0,0,0-2.162c-.088-.665-1.173-.321-1.719-.394s-1.528.054-2.113,0c-.041-.76.142-1.645-.442-2.211a5.941,5.941,0,0,0,3.329-2.666,6.177,6.177,0,0,0,.64-4.792,7.081,7.081,0,0,0-2.442-3.553c-1.21-.838-2.6-1.833-4.082-1.863-.177,0-.364-.014-.541,0a8.268,8.268,0,0,0-6.6,5.345,6.012,6.012,0,0,0,3.745,7.48,2.35,2.35,0,0,0-.442,1.376m4.128-14.053a5.23,5.23,0,0,1,.786.491c1.324.745,3.267,1.472,3.98,3a5.8,5.8,0,0,1,.888,5.311c-.715,1.6-1.634,3.055-3.394,3.485a3.474,3.474,0,0,1-1.671.147,14.939,14.939,0,0,0-1.867-.049,5.062,5.062,0,0,1-1.72.049,5.379,5.379,0,0,1-2.666-1.511,5.742,5.742,0,0,1-1.462-2.715,5.63,5.63,0,0,1,.442-3.44,8.941,8.941,0,0,1,.786-1.474,8.028,8.028,0,0,1,3.046-2.408c.407-.229.806-.5,1.228-.688a5.053,5.053,0,0,1,.786-.246.987.987,0,0,1,.295-.049,2.065,2.065,0,0,1,.541.1m2.113,13.267a4.519,4.519,0,0,1,.147,1.032,1.381,1.381,0,0,1,.049.491H74.635c-.031-.557.024-.925.038-1.485s.63-.528,1.092-.481h3.341c.591,0,1.229-.208,1.376.442m3.931,2.211c.01.506-.049.972-.049,1.474v2.85H75.029c-.484,0-.993-.047-1.474,0s-1.016.049-1.523.049h-.737a1.674,1.674,0,0,1-.541.049c.019-.583-.026-1.188,0-1.769s-.039-1.211-.049-1.769-.231-1.307.442-1.228,1.174-.069,1.8.016,1.156,0,1.785.033h5.749a4.415,4.415,0,0,1,.442-.049c1.136-.11,2.366-.02,3.538-.049-.028.124.058.31-.049.393m-11.94,4.865c.376-.007.754,0,1.13,0,.781,0,1.617-.023,2.359.049h4.766c.425-.041.917-.049,1.376-.049.842,0,2.093-.19,2.688.408a15.746,15.746,0,0,0,1.738,1.406c.614.477,1.167.865,1.753,1.343s1.179.911,1.744,1.4,1.084.968,1.644,1.452,1.052,1.048,1.6,1.545,1.071,1.026,1.609,1.536a48.391,48.391,0,0,1-2.986,10.134,47.266,47.266,0,0,1-4.876,8.293c-.187.272-.363.457-.537.741s-.437.42-.581.745-.616.055-.6.43c-.3-.009-.576.085-.884.049-2.353.207-4.709.359-7.125.393a65.856,65.856,0,0,1-7.125-.393c-.215-.02-.565.037-.541-.295-.278.235-.448-.194-.59-.393-1.287-1.955-2.631-3.479-3.8-5.538a39.045,39.045,0,0,1-3-6.338,47.231,47.231,0,0,1-1.851-7.534c-.018-.108-.083-.264-.1-.393,1.259-1.223,2.5-2.461,3.784-3.636.509-.434.956-.866,1.486-1.265s.965-.835,1.5-1.253,1.046-.763,1.589-1.212a15.146,15.146,0,0,0,1.556-1.2A2.863,2.863,0,0,1,72.473,217.351Z" transform="translate(-59.682 -196.854)" fill="none" stroke="#815141" stroke-width="0.3"/>
        </g>
        <g id="Grupo_4" data-name="Grupo 4" transform="translate(17.288 9.729)">
          <path id="Caminho_42" data-name="Caminho 42" d="M355.322,198.046c-.458.255-.656.905-1.047,1.263a9.148,9.148,0,0,0-.98,1.329,11.021,11.021,0,0,0-.835,1.474,8.014,8.014,0,0,0-.577,1.732,9.912,9.912,0,0,0,.164,3.129,5.336,5.336,0,0,0,1.175,2.264c.554.636,1.4,1.336,2.248,1.093.478-.272.3-1.063.393-1.523s.128-1.246.193-1.723a7.4,7.4,0,0,0,.053-.881c.024-.389-.016-.631,0-.983a7.245,7.245,0,0,0-.049-.934c-.023-.323.051-.628,0-.934a4.8,4.8,0,0,1-.049-.934c.01-.314-.005-.628,0-.934s-.052-.641-.049-.934a4.431,4.431,0,0,0-.095-.839,5.75,5.75,0,0,0-.091-.892c-.089-.209.029-.718-.158-.825A.985.985,0,0,0,355.322,198.046Z" transform="translate(-351.824 -197.997)" fill="none" stroke="#f9eade" stroke-width="0.3"/>
        </g>
        <g id="Grupo_5" data-name="Grupo 5" transform="translate(20.932 9.729)">
          <path id="Caminho_43" data-name="Caminho 43" d="M426,210.333a1.67,1.67,0,0,1,.672-.082c.229.029.42.165.606.18.5-.012,1.031-.815,1.364-1.192a6.411,6.411,0,0,0,.946-1.609,5.552,5.552,0,0,1-.639.835,13.5,13.5,0,0,0,.7-1.754,6.033,6.033,0,0,0,.28-2.226,11.545,11.545,0,0,0-.488-1.969c-.161-.64-.834-1.026-.642-1.667a6.224,6.224,0,0,1,1.474,3.931c.034-.159.231-.361.1-.541.317.089.136.326.552.159s.845-.394,1.266-.552a5.174,5.174,0,0,1-.824,4.434c-.967,1.146-2.171,1.53-3.353,2.249a5.163,5.163,0,0,0,.934-.147c1.761-.429,2.679-1.887,3.394-3.485a5.8,5.8,0,0,0-.888-5.311c.171.365.337.819.488,1.183s.4,1.045-.1,1.172-.729.405-1.224.5c-.237-2.387-2.035-4.113-3.587-5.847-.124-.124-.4-.359-.344-.491a2.065,2.065,0,0,0-.54-.1c.188.106.069.616.158.825a5.753,5.753,0,0,1,.091.892,4.426,4.426,0,0,1,.095.839c0,.293.055.628.049.934s.01.619,0,.934a4.8,4.8,0,0,0,.049.934c.051.306-.023.61,0,.934a7.245,7.245,0,0,1,.049.934c-.016.351.024.594,0,.983a7.4,7.4,0,0,1-.053.881c-.065.478-.1,1.263-.193,1.723S426.478,210.062,426,210.333Z" transform="translate(-426 -198)" fill="none" stroke="#e2ab90" stroke-width="0.3"/>
        </g>
        <g id="Grupo_6" data-name="Grupo 6" transform="translate(16.707 9.778)">
          <path id="Caminho_44" data-name="Caminho 44" d="M343.292,199.246a5.546,5.546,0,0,1-.529.7,8.24,8.24,0,0,0-.639.786c-.2.25-.4.562-.59.835s-.407.543-.589.836a8.947,8.947,0,0,0-.5.926,6.717,6.717,0,0,0-.446,1.028,2.106,2.106,0,0,1,.258-.479c.121-.171.409.112.528.037.011.31-.136.579-.147.884a8.015,8.015,0,0,1,.577-1.732,11.026,11.026,0,0,1,.835-1.474,9.15,9.15,0,0,1,.98-1.329c.39-.358.589-1.008,1.047-1.263A5.051,5.051,0,0,0,343.292,199.246Z" transform="translate(-340 -199)" fill="none" stroke="#e3b298" stroke-width="0.3"/>
        </g>
        <g id="Grupo_7" data-name="Grupo 7" transform="translate(21.614 9.827)">
          <path id="Caminho_45" data-name="Caminho 45" d="M440.215,200.491c.169.17.4.482.639.393a1.712,1.712,0,0,0-.2-.393,5.231,5.231,0,0,0-.786-.491C439.819,200.132,440.091,200.368,440.215,200.491Z" transform="translate(-439.865 -200)" fill="none" stroke="#edd7cc" stroke-width="0.3"/>
        </g>
        <g id="Grupo_8" data-name="Grupo 8" transform="translate(14.692 10.024)">
          <path id="Caminho_46" data-name="Caminho 46" d="M303.078,204.688c-.08.065-.124.185-.246.2.238.149-.265.444-.455.676s-.5.473-.712.712a9.643,9.643,0,0,0-.7.725c-.126,0-.021-.277-.246-.147-.035-.356.217-.573.491-.884-.5.213-.8.775-1.179,1.13a8.937,8.937,0,0,0-.786,1.474,15.565,15.565,0,0,1-.246,1.572c.121-.015.058-.163.147-.2a1.535,1.535,0,0,1,.2-.54c.488.311.986.67,1.474.983a3.8,3.8,0,0,1,.2-1.278,6.712,6.712,0,0,1,.446-1.028,8.931,8.931,0,0,1,.5-.926c.182-.292.4-.563.589-.836s.385-.585.59-.835a8.239,8.239,0,0,1,.639-.786,5.539,5.539,0,0,0,.529-.7C303.885,204.184,303.486,204.458,303.078,204.688Z" transform="translate(-299 -204)" fill="none" stroke="#f7e0d2" stroke-width="0.3"/>
        </g>
        <g id="Grupo_9" data-name="Grupo 9" transform="translate(21.964 10.319)">
          <path id="Caminho_47" data-name="Caminho 47" d="M451.422,213c-.713-1.526-2.656-2.252-3.98-3a1.71,1.71,0,0,1,.2.393c-.235.089-.469-.224-.639-.393,1.552,1.734,3.35,3.461,3.587,5.847.5-.09.724-.368,1.224-.5s.25-.808.1-1.172S451.593,213.362,451.422,213Z" transform="translate(-447 -210)" fill="none" stroke="#eabfa8" stroke-width="0.3"/>
        </g>
        <g id="Grupo_10" data-name="Grupo 10" transform="translate(15.724 10.712)">
          <path id="Caminho_48" data-name="Caminho 48" d="M320,220.408c.384-.355.675-.917,1.179-1.13-.275.311-.527.529-.491.884.225-.129.119.147.246.147a9.64,9.64,0,0,1,.7-.725c.208-.24.523-.481.712-.712s.693-.527.455-.676c.122-.012.166-.132.246-.2A8.028,8.028,0,0,0,320,220.408Z" transform="translate(-320 -218)" fill="none" stroke="#ebc2ae" stroke-width="0.3"/>
        </g>
        <g id="Grupo_11" data-name="Grupo 11" transform="translate(23.699 12.579)">
          <path id="Caminho_49" data-name="Caminho 49" d="M483.127,262.781a6.9,6.9,0,0,0,.688-2.85A6.224,6.224,0,0,0,482.341,256c-.192.641.481,1.027.642,1.667a11.548,11.548,0,0,1,.488,1.969,6.032,6.032,0,0,1-.28,2.226,13.5,13.5,0,0,1-.7,1.754A5.556,5.556,0,0,0,483.127,262.781Z" transform="translate(-482.307 -256)" fill="none" stroke="#f4dfd1" stroke-width="0.3"/>
        </g>
        <g id="Grupo_12" data-name="Grupo 12" transform="translate(14.374 14.594)">
          <path id="Caminho_50" data-name="Caminho 50" d="M296.769,304.665c.124.027.272.1.393,0-2.026-.651-4-2.348-4.275-4.57a4.336,4.336,0,0,1,.1-1.72c-.089.034-.027.182-.147.2a15.582,15.582,0,0,0,.246-1.572,5.63,5.63,0,0,0-.442,3.44,5.742,5.742,0,0,0,1.462,2.715A5.379,5.379,0,0,0,296.769,304.665Z" transform="translate(-292.52 -297)" fill="none" stroke="#dfad96" stroke-width="0.3"/>
        </g>
        <g id="Grupo_13" data-name="Grupo 13" transform="translate(14.689 14.599)">
          <path id="Caminho_51" data-name="Caminho 51" d="M300.952,297.652a3.8,3.8,0,0,0-.2,1.278c-.488-.313-.986-.672-1.474-.983a1.534,1.534,0,0,0-.2.541,4.335,4.335,0,0,0-.1,1.72,5.286,5.286,0,0,1,.049-1.179c.16.149.243-.058.344.1-.019-.195.273-.238.295-.442.1.122.224.058.344,0-.082.288.129.39.344.393.071-.07-.021-.191.049-.295.566.581.589,1.532.873,2.272a7.827,7.827,0,0,0,1.1,2.089A11.643,11.643,0,0,0,304,304.727a3.406,3.406,0,0,1,.835-.049c.226.005.777.014.442-.1a2.315,2.315,0,0,1,1.179.1c-.186-.015-.376-.151-.606-.18a1.67,1.67,0,0,0-.672.082c-.843.242-1.694-.457-2.248-1.093a5.336,5.336,0,0,1-1.175-2.264,9.911,9.911,0,0,1-.164-3.129c.012-.306.159-.574.147-.884-.119.075-.407-.207-.528-.037A2.109,2.109,0,0,0,300.952,297.652Z" transform="translate(-298.934 -297.117)" fill="none" stroke="#cc9078" stroke-width="0.3"/>
        </g>
        <g id="Grupo_14" data-name="Grupo 14" transform="translate(14.726 15.576)">
          <path id="Caminho_52" data-name="Caminho 52" d="M310.174,317.934a6.9,6.9,0,0,1-.688,2.85,6.413,6.413,0,0,1-.946,1.609c-.332.376-.861,1.179-1.364,1.192a2.315,2.315,0,0,0-1.179-.1c.335.112-.217.1-.442.1a3.406,3.406,0,0,0-.835.049,11.642,11.642,0,0,1-1.609-1.585,7.827,7.827,0,0,1-1.1-2.089c-.284-.74-.307-1.69-.873-2.272-.07.1.022.225-.049.295-.215,0-.426-.1-.344-.393-.12.058-.245.122-.344,0-.022.2-.314.248-.295.442-.1-.157-.184.051-.344-.1a5.285,5.285,0,0,0-.049,1.179c.275,2.222,2.248,3.919,4.275,4.57-.121.1-.269.027-.393,0a5.062,5.062,0,0,0,1.72-.049,14.939,14.939,0,0,1,1.867.049,3.474,3.474,0,0,0,1.671-.147,5.165,5.165,0,0,1-.934.147c1.182-.719,2.386-1.1,3.353-2.249A5.173,5.173,0,0,0,312.09,317c-.421.158-.851.384-1.266.552s-.234-.069-.552-.159C310.4,317.573,310.208,317.775,310.174,317.934Z" transform="translate(-299.693 -317)" fill="none" stroke="#aa6e59" stroke-width="0.3"/>
        </g>
        <g id="Grupo_15" data-name="Grupo 15" transform="translate(17.877 22.628)">
          <path id="Caminho_53" data-name="Caminho 53" d="M365.147,462.505a.412.412,0,0,1,0-.049h-1.278a10.627,10.627,0,0,1,.049-1.572c.082.145.017.343.2.442.415-.123.483-.617.835-.786-.461-.048-1.078-.079-1.092.481s-.069.928-.038,1.485Z" transform="translate(-363.811 -460.516)" fill="none" stroke="#cf9075" stroke-width="0.3"/>
        </g>
        <g id="Grupo_16" data-name="Grupo 16" transform="translate(17.93 22.652)">
          <path id="Caminho_54" data-name="Caminho 54" d="M366.183,462.916h.2c1.1-.149,2.3.01,3.44-.049a3.7,3.7,0,0,0-.393-1.818c-.056-.007-.066-.041-.1-.049h-3.341c-.352.17-.42.663-.835.786-.179-.1-.115-.3-.2-.442a10.627,10.627,0,0,0-.049,1.572Z" transform="translate(-364.901 -461)" fill="none" stroke="#e6ad92" stroke-width="0.3"/>
        </g>
        <g id="Grupo_17" data-name="Grupo 17" transform="translate(22.357 22.621)">
          <path id="Caminho_55" data-name="Caminho 55" d="M455.1,460.437c.55.068,1.066-.2,1.278.393-.146-.65-.785-.442-1.376-.442C455.032,460.4,455.043,460.43,455.1,460.437Z" transform="translate(-455 -460.356)" fill="none" stroke="#aa735c" stroke-width="0.3"/>
        </g>
        <g id="Grupo_18" data-name="Grupo 18" transform="translate(19.409 22.697)">
          <path id="Caminho_56" data-name="Caminho 56" d="M395,463.78h4.471v-.442a4.52,4.52,0,0,0-.147-1.032c-.212-.6-.727-.325-1.278-.393a3.7,3.7,0,0,1,.393,1.818C397.3,463.79,396.1,463.631,395,463.78Z" transform="translate(-395 -461.909)" fill="none" stroke="#d49679" stroke-width="0.3"/>
        </g>
        <g id="Grupo_19" data-name="Grupo 19" transform="translate(17.435 23.881)">
          <path id="Caminho_57" data-name="Caminho 57" d="M354.838,486.884c.141-.1.042-.707.049-.884A4.069,4.069,0,0,0,354.838,486.884Z" transform="translate(-354.83 -486)" fill="none" stroke="#b99f93" stroke-width="0.3"/>
        </g>
        <g id="Grupo_20" data-name="Grupo 20" transform="translate(19.212 24.126)">
          <path id="Caminho_58" data-name="Caminho 58" d="M391.18,491.442h-.2a.407.407,0,0,0,0,.049H395.7a1.381,1.381,0,0,0-.049-.491v.442Z" transform="translate(-390.982 -491)" fill="none" stroke="#9e6852" stroke-width="0.3"/>
        </g>
        <g id="Grupo_21" data-name="Grupo 21" transform="translate(24.175 24.905)">
          <path id="Caminho_59" data-name="Caminho 59" d="M492,506.907c.512,0,1.046.045,1.523,0,.161-.015.33,0,.491,0h1.474v.344c.108-.084.022-.269.049-.393C494.366,506.886,493.136,506.8,492,506.907Z" transform="translate(-492 -506.85)" fill="none" stroke="#a7705b" stroke-width="0.3"/>
        </g>
        <g id="Grupo_22" data-name="Grupo 22" transform="translate(13.912 24.95)">
          <path id="Caminho_60" data-name="Caminho 60" d="M283.765,512.5h-.491c.008-.5.627-.328,1.081-.344s.4-.568.393-1.032.019-.976,0-1.474.044-.88,0-1.425.539-.378.983-.344,1.019-.026,1.474,0a.406.406,0,0,1,0-.049c-.629-.028-1.158.052-1.785-.033s-1.128.062-1.8-.016-.452.671-.442,1.228.075,1.188.049,1.769.019,1.186,0,1.769A1.674,1.674,0,0,0,283.765,512.5Z" transform="translate(-283.133 -507.773)" fill="none" stroke="#d99d82" stroke-width="0.3"/>
        </g>
        <g id="Grupo_23" data-name="Grupo 23" transform="translate(23.733 24.962)">
          <path id="Caminho_61" data-name="Caminho 61" d="M483,508.049h1.523c0,1.515,0,3.094,0,4.57h.393c-.138-.092.054-.613,0-.835a7.206,7.206,0,0,1,0-.934c-.013-.265-.013-.714,0-.983a7.209,7.209,0,0,1,0-.934c.054-.235-.145-.8.049-.934-.478.045-1.011,0-1.523,0A4.417,4.417,0,0,0,483,508.049Z" transform="translate(-483 -508)" fill="none" stroke="#cc9075" stroke-width="0.3"/>
        </g>
        <g id="Grupo_24" data-name="Grupo 24" transform="translate(25.599 24.955)">
          <path id="Caminho_62" data-name="Caminho 62" d="M521.016,512.488h1.916v-.2a3.535,3.535,0,0,0-.934-.049c-.374.075-.481-.207-.442-.54s-.009-.665,0-.983.014-.687,0-.983.046-.73,0-.983.224-.726,0-.884c-.161,0-.331-.015-.491,0-.195.138,0,.7-.049.934a7.215,7.215,0,0,0,0,.934c-.013.269-.013.717,0,.983a7.212,7.212,0,0,0,0,.934C521.069,511.875,520.878,512.4,521.016,512.488Z" transform="translate(-520.965 -507.862)" fill="none" stroke="#e8b8a0" stroke-width="0.3"/>
        </g>
        <g id="Grupo_25" data-name="Grupo 25" transform="translate(26.183 24.962)">
          <path id="Caminho_63" data-name="Caminho 63" d="M534.234,512.422a25.11,25.11,0,0,0,.049-2.6c0-.5.059-.968.049-1.474V508h-1.474c.224.159-.046.631,0,.884s-.014.687,0,.983.009.665,0,.983.038.65,0,.983.068.615.442.54A3.54,3.54,0,0,1,534.234,512.422Z" transform="translate(-532.851 -508)" fill="none" stroke="#da9e83" stroke-width="0.3"/>
        </g>
        <g id="Grupo_26" data-name="Grupo 26" transform="translate(14.053 25.009)">
          <path id="Caminho_64" data-name="Caminho 64" d="M286.491,513.635h.737a.412.412,0,0,1,0-.049c-.2,0-.562.079-.59-.2,1.249-.035,2.388.013,3.636.049-.426.251-1.076-.025-1.523.147.481-.047.991,0,1.474,0,2.253-.218,4.68-.049,6.977-.049,0-1.476,0-3.054,0-4.57H294.55a.406.406,0,0,1,0,.049h.786c.031.52-.041,1.108,0,1.621s-.092,1.087-.049,1.572-.259,1.344.442,1.228c-1.676.115-3.447.016-5.159.049v-4.422c1.155-.033,2.374.065,3.489-.049h-4.127c-.456-.026-1.03.034-1.474,0s-1.026-.2-.983.344-.019.927,0,1.425-.009,1.01,0,1.474.061,1.016-.393,1.032-1.073-.154-1.081.344h.491m1.671-4.521c.455.1.316.533.344.934s-.047.9,0,1.327a9.73,9.73,0,0,0,0,1.278c.1.438-.311.869-.393.344a12.305,12.305,0,0,1,0-1.277c-.038-.476.023-.87,0-1.327A8.7,8.7,0,0,1,288.162,509.115Z" transform="translate(-286 -508.966)" fill="none" stroke="#ecbfa7" stroke-width="0.3"/>
        </g>
        <g id="Grupo_27" data-name="Grupo 27" transform="translate(17.983 25.011)">
          <path id="Caminho_65" data-name="Caminho 65" d="M365.983,509.049H370.6a.412.412,0,0,0,0-.049h-4.619A.412.412,0,0,0,365.983,509.049Z" transform="translate(-365.982 -509)" fill="none" stroke="#ae7c6a" stroke-width="0.3"/>
        </g>
        <g id="Grupo_28" data-name="Grupo 28" transform="translate(18.623 25.06)">
          <path id="Caminho_66" data-name="Caminho 66" d="M382.98,510h-.491c-1.114.115-2.334.016-3.489.049v4.422c1.712-.033,3.484.065,5.159-.049-.7.116-.4-.743-.442-1.228s.09-1.059.049-1.572.031-1.1,0-1.622Z" transform="translate(-379 -510)" fill="none" stroke="#f6e4d5" stroke-width="0.3"/>
        </g>
        <g id="Grupo_29" data-name="Grupo 29" transform="translate(16.137 25.158)">
          <path id="Caminho_67" data-name="Caminho 67" d="M328.488,512a8.7,8.7,0,0,0-.049,1.278c.023.457-.038.851,0,1.327a12.306,12.306,0,0,0,0,1.277c.082.526.5.094.393-.344a9.708,9.708,0,0,1,0-1.277c-.047-.422.027-.926,0-1.327S328.943,512.1,328.488,512Z" transform="translate(-328.41 -512)" fill="none" stroke="#daa287" stroke-width="0.3"/>
        </g>
        <g id="Grupo_30" data-name="Grupo 30" transform="translate(18.279 26.78)">
          <path id="Caminho_68" data-name="Caminho 68" d="M381.287,547.6v.2h-2.309c-2.3,0-4.725-.169-6.977.049h9.336V545A25.109,25.109,0,0,1,381.287,547.6Z" transform="translate(-372 -545)" fill="none" stroke="#a4705c" stroke-width="0.3"/>
        </g>
        <g id="Grupo_31" data-name="Grupo 31" transform="translate(14.692 29.421)">
          <path id="Caminho_69" data-name="Caminho 69" d="M299.59,598.959c.5,0,1.026.048,1.523,0,.448-.172,1.1.1,1.523-.147-1.249-.036-2.388-.084-3.636-.049C299.028,599.038,299.391,598.959,299.59,598.959Z" transform="translate(-299 -598.75)" fill="none" stroke="#f1d6c8" stroke-width="0.3"/>
        </g>
        <g id="Grupo_32" data-name="Grupo 32" transform="translate(15.281 29.63)">
          <path id="Caminho_70" data-name="Caminho 70" d="M310.983,603.049c.508,0,1.051,0,1.523-.049-.5.048-1.024,0-1.523,0A.407.407,0,0,0,310.983,603.049Z" transform="translate(-310.982 -603)" fill="none" stroke="#aa7a66" stroke-width="0.3"/>
        </g>
        <g id="Grupo_33" data-name="Grupo 33" transform="translate(3.587 30.127)">
          <path id="Caminho_71" data-name="Caminho 71" d="M76.734,618.516C75.5,619.752,74.205,620.927,73,622.2c.38.229.937-.045,1.36.115s1.121-.065,1.146.475c-.52.2-1.055-.256-1.523-.1.868.938,1.893,1.69,2.764,2.641s2.047,1.581,2.875,2.58,1.1,2.495,1.77,3.635.99,2.617,1.731,3.723c-.509-1.532-.988-2.963-1.414-4.531a15.436,15.436,0,0,1-.944-4.952c.156.1.15-.073.246-.147a7.183,7.183,0,0,0,.393,2.408,9.079,9.079,0,0,1-.294-1.622c0-.587-.029-1.327,0-1.916s.751.066,1.115.212.837.5,1.229.688.8.5,1.206.71.85.442,1.25.667.848.439,1.248.668.848.435,1.236.681a11.778,11.778,0,0,1,1.27.646c.348.291-.222.887-.363,1.267s-.446.887-.62,1.3-.495.891-.643,1.323c.1-.115.186-.05.295-.1.013.112-.17.275.049.2a3.218,3.218,0,0,1-.382.994c-.16.319-.3.653-.45.975s-.278.614-.442.934-.3.649-.442.983-.282.592-.442.934a10.32,10.32,0,0,1-.461.964,6.318,6.318,0,0,1-.465.911c-.3.411-.021.54.481.431a10.041,10.041,0,0,1,1.375,0c.479-.047.9-.039,1.376-.049s.91.009,1.376,0,.965.014,1.425,0,.929.029,1.376,0,1,.06,1.425,0,.927.116,1.24.06.336-.773.431-.993a2.5,2.5,0,0,0-.2.639,15.471,15.471,0,0,1-1.13-2.506c.2.083.17.554.393.442-.158.176.081.093,0,.295.156-.092.273-.01.344.147.117-.031.1-.224.246-.2-.2.208-.063.335.147.147-.05.143.142.264.1.049.132.143.133.212.295,0-.016.323-.161.613-.2.934.369-.458.264-1.272.54-1.819a16.272,16.272,0,0,0,.59-1.818c.21-.586.371-1.225.589-1.818s.351-1.207.538-1.821.39-1.231.541-1.867.32-1.262.511-1.9.248-1.373.377-2.031c.451.311.249,1.2.132,1.754s-.349,1.167-.473,1.738-.29,1.186-.461,1.75-.34,1.15-.492,1.719-.383,1.091-.57,1.641-.359,1.124-.543,1.668a6.339,6.339,0,0,0-.541,1.621c.579-1.411,1.359-2.786,1.954-4.188s1.417-2.812,1.992-4.2,1.779-2.283,2.822-3.369,2.1-1.991,3.108-3.083c.118.08.077.089.246,0a20.7,20.7,0,0,1-.736,3.244c-.315,1.009-.661,2.024-1.029,3s-.827,1.887-1.2,2.831-.9,1.75-1.349,2.631-.95,1.734-1.451,2.578-1.039,1.651-1.554,2.476-1.4,1.712-1.036,2.7c.556-.411.832-1.163,1.376-1.621a47.269,47.269,0,0,0,4.876-8.293,48.392,48.392,0,0,0,2.986-10.134c-.539-.51-1.062-1.038-1.609-1.536s-1.04-1.061-1.6-1.545-1.079-.963-1.644-1.452-1.159-.922-1.744-1.4-1.139-.866-1.753-1.343a15.731,15.731,0,0,1-1.738-1.406c-.595-.6-1.846-.408-2.688-.408a.412.412,0,0,1,0,.049,5.089,5.089,0,0,1,1.179.049,7.668,7.668,0,0,0-.786.2c.36.307,1.026.336,1.41.7a13.8,13.8,0,0,0,1.156.957c.4.313.755.7,1.156,1.006s.756.632,1.13.983.75.686,1.13,1.032.7.69,1.1,1.016.68.73,1.089,1.073.6.718,1.032,1.081.666,1.225-.045,1.257a13.836,13.836,0,0,0-1.786.327c-.627.1-1.2.248-1.772.39s-1.2.485-1.41-.106-.481-.931-.7-1.467-.47-.915-.688-1.425-.554-.889-.779-1.383-.459-.931-.712-1.4-.482-.969-.723-1.439-.493-.914-.726-1.387-.477-.972-.7-1.462h-.393c1.584,3.494,3.429,6.911,5.11,10.368-.559.339-1.1.662-1.675.979s-1.135.651-1.717.937-1.136.651-1.722.931-1.136.662-1.727.926-1.164.654-1.743.911-1.225-.36-1.787-.6-1.146-.664-1.72-.933-1.151-.627-1.727-.926-1.153-.585-1.712-.941a9.953,9.953,0,0,1-1.654-1c-.52-.48.138-1.316.377-1.859s.572-1.235.854-1.8.584-1.2.884-1.769.623-1.158.914-1.739.656-1.12.953-1.7a8.025,8.025,0,0,0,.869-1.784h1.916c-.741-.072-1.577-.049-2.359-.049a.714.714,0,0,1,.246.1c-.739.252-.882,1.2-1.315,1.829s-.694,1.424-1.129,2.065-.674,1.413-1.059,2.085-.8,1.354-1.13,2.064-.836,1.345-1.115,2.078c-1.792-.4-3.623-.675-5.454-.934a3.593,3.593,0,0,1,1-1.364c.382-.414.768-.836,1.179-1.228s.776-.791,1.2-1.155.831-.779,1.253-1.155.829-.783,1.253-1.155.815-.753,1.253-1.106.793-.828,1.253-1.155.878-.906,1.437-.971a2.863,2.863,0,0,0-2.273.43,15.144,15.144,0,0,1-1.556,1.2c-.542.449-1.054.794-1.589,1.212s-.969.854-1.5,1.253-.978.831-1.486,1.265M90.2,629.277c1.681,3.123,3.22,6.346,4.865,9.483a15.22,15.22,0,0,1-2.57-4.211,25.149,25.149,0,0,0-2.393-4.388c-1.417,2.506-2.11,5.475-3.931,7.714C87.483,635,88.778,632.081,90.2,629.277Z" transform="translate(-73 -613.117)" fill="none" stroke="#ebbba2" stroke-width="0.3"/>
        </g>
        <g id="Grupo_34" data-name="Grupo 34" transform="translate(5.896 30.167)">
          <path id="Caminho_72" data-name="Caminho 72" d="M130.958,613.937c-.376,0-.754-.007-1.13,0-.56.064-.977.644-1.437.97s-.815.8-1.253,1.155-.828.735-1.253,1.106-.832.778-1.253,1.155-.825.791-1.253,1.155-.792.762-1.2,1.155-.8.814-1.179,1.228a3.593,3.593,0,0,0-1,1.364c1.831.259,3.662.53,5.454.934.279-.734.785-1.369,1.115-2.078s.745-1.391,1.13-2.064.624-1.445,1.059-2.085.7-1.433,1.129-2.065.576-1.577,1.315-1.829A.712.712,0,0,0,130.958,613.937Z" transform="translate(-120 -613.933)" fill="none" stroke="#f5dece" stroke-width="0.3"/>
        </g>
        <g id="Grupo_35" data-name="Grupo 35" transform="translate(23.979 30.17)">
          <path id="Caminho_73" data-name="Caminho 73" d="M488,614.049h1.376a.412.412,0,0,0,0-.049C488.917,614,488.425,614.008,488,614.049Z" transform="translate(-488 -614)" fill="none" stroke="#be8e79" stroke-width="0.3"/>
        </g>
        <g id="Grupo_36" data-name="Grupo 36" transform="translate(12.249 30.219)">
          <path id="Caminho_74" data-name="Caminho 74" d="M261.547,615h-7.223a8.023,8.023,0,0,1-.869,1.784c-.3.58-.661,1.12-.953,1.7s-.614,1.168-.914,1.739-.6,1.2-.884,1.769-.615,1.257-.854,1.8-.9,1.379-.377,1.859a9.95,9.95,0,0,0,1.654,1c.559.356,1.136.641,1.712.941s1.152.658,1.727.926,1.158.693,1.72.933,1.208.858,1.787.6,1.152-.647,1.743-.911,1.141-.646,1.727-.926,1.14-.645,1.722-.931,1.147-.62,1.717-.937,1.115-.64,1.675-.979C264.976,621.911,263.131,618.494,261.547,615Z" transform="translate(-249.277 -615)" fill="none" stroke="#f9ece3" stroke-width="0.3"/>
        </g>
        <g id="Grupo_37" data-name="Grupo 37" transform="translate(24.912 30.21)">
          <path id="Caminho_75" data-name="Caminho 75" d="M507.442,614.821H507c.224.49.466.99.7,1.462s.485.917.726,1.387.47.969.723,1.439.487.907.712,1.4.561.874.779,1.383.473.89.688,1.425.487.875.7,1.467.84.248,1.41.106,1.144-.292,1.772-.39a13.854,13.854,0,0,1,1.786-.327c.711-.032.473-.894.045-1.257s-.622-.738-1.032-1.081-.689-.748-1.089-1.073-.717-.67-1.1-1.016-.756-.682-1.13-1.032-.73-.673-1.13-.983-.752-.693-1.156-1.006a13.787,13.787,0,0,1-1.156-.957c-.384-.367-1.051-.4-1.41-.7a7.65,7.65,0,0,1,.786-.2A5.09,5.09,0,0,0,507.442,614.821Z" transform="translate(-507 -614.812)" fill="none" stroke="#f2cfbb" stroke-width="0.3"/>
        </g>
        <g id="Grupo_38" data-name="Grupo 38" transform="translate(3.538 35.526)">
          <path id="Caminho_76" data-name="Caminho 76" d="M72.1,727.029c.008-.064-.006-.132,0-.2,1.035.128.787,1.375,1.078,2.166s.435,1.766.73,2.563.543,1.657.861,2.431.646,1.541,1.005,2.287.743,1.462,1.088,2.2.8,1.413,1.172,2.12.835,1.379,1.236,2.056.873,1.344,1.318,1.974,1.147,1.5.6,2.2c-.225-.02-.247-.316-.442-.393.142.2.312.628.59.393-.025.332.326.275.541.295a1.309,1.309,0,0,1-.344-.1c.542-.331.867-.9,1.437-1.216s.808-1.049,1.511-1.142a9.2,9.2,0,0,1,2.468.235c.727.134,1.572.206,2.348.306a12.7,12.7,0,0,0,2.409-.245c.73-.051,1.684-.315,2.359-.344s1.02.8,1.559,1.092.925.923,1.388,1.314a4.733,4.733,0,0,0-.884.1c.308.036.584-.058.884-.049-.014-.375.457-.1.6-.43s.408-.461.581-.745.35-.469.537-.741c-.544.459-.82,1.211-1.376,1.622-.369-.986.521-1.875,1.036-2.7s1.053-1.632,1.554-2.476,1-1.7,1.451-2.578.977-1.688,1.349-2.631.83-1.855,1.2-2.831.714-1.991,1.029-3a20.7,20.7,0,0,0,.736-3.244c-.169.089-.128.08-.246,0-1.012,1.092-2.064,2-3.108,3.083s-2.248,1.981-2.822,3.369-1.4,2.8-1.992,4.2-1.375,2.777-1.954,4.188a6.338,6.338,0,0,1,.541-1.621c.184-.544.356-1.118.543-1.668s.418-1.072.57-1.641.32-1.156.492-1.719.338-1.178.461-1.75.356-1.184.473-1.738.318-1.443-.132-1.754c-.129.657-.186,1.4-.377,2.031s-.36,1.26-.511,1.9-.354,1.253-.541,1.867-.321,1.226-.538,1.82-.379,1.232-.589,1.819a16.271,16.271,0,0,1-.59,1.818c-.276.546-.171,1.361-.54,1.819a.179.179,0,0,0,0,.049c-.1.22-.118.937-.431.993s-.817-.119-1.24-.059-.978-.029-1.425,0-.916-.014-1.376,0-.959-.009-1.425,0-.9-.01-1.376,0-.9,0-1.376.049a10.022,10.022,0,0,0-1.375,0c-.5.109-.78-.021-.481-.431a6.315,6.315,0,0,0,.465-.911,10.326,10.326,0,0,0,.461-.964c.161-.342.3-.6.442-.934s.278-.664.442-.983.294-.611.442-.934.289-.656.45-.975a3.218,3.218,0,0,0,.382-.994c-.219.078-.036-.084-.049-.2-.109.048-.2-.017-.295.1-.821,2.4-2.263,4.614-3,7.027-1.377-3.8-2.623-7.709-3.636-11.646a7.183,7.183,0,0,1-.393-2.408c-.1.074-.09.247-.246.147a15.437,15.437,0,0,0,.944,4.952c.426,1.568.906,3,1.414,4.531-.741-1.107-1.066-2.583-1.731-3.723S79.5,733.4,78.67,732.4s-2-1.629-2.875-2.58-1.9-1.7-2.764-2.641c.468-.158,1,.3,1.523.1-.025-.54-.724-.315-1.146-.475s-.979.115-1.36-.115c1.205-1.275,2.5-2.449,3.734-3.685-1.285,1.175-2.525,2.413-3.784,3.636C72.016,726.765,72.08,726.922,72.1,727.029Z" transform="translate(-72 -723)" fill="none" stroke="#c38871" stroke-width="0.3"/>
        </g>
        <g id="Grupo_39" data-name="Grupo 39" transform="translate(3.634 39.359)">
          <path id="Caminho_77" data-name="Caminho 77" d="M73.968,801.2a47.231,47.231,0,0,0,1.851,7.534,39.043,39.043,0,0,0,3,6.338c1.167,2.059,2.511,3.583,3.8,5.538.2.077.217.373.442.393.545-.7-.156-1.57-.6-2.2s-.918-1.3-1.318-1.974-.861-1.349-1.236-2.056-.826-1.379-1.172-2.12-.729-1.458-1.088-2.2-.688-1.512-1.005-2.287-.568-1.634-.861-2.431-.439-1.772-.73-2.562S75,801.128,73.968,801C73.962,801.065,73.976,801.132,73.968,801.2Z" transform="translate(-73.966 -801)" fill="none" stroke="#e6af95" stroke-width="0.3"/>
        </g>
        <g id="Grupo_40" data-name="Grupo 40" transform="translate(11.682 41.279)">
          <path id="Caminho_78" data-name="Caminho 78" d="M238.048,843.868c1.013,3.937,2.259,7.842,3.636,11.646.734-2.413,2.177-4.628,3-7.027.148-.432.468-.914.643-1.323s.479-.917.62-1.3.711-.975.363-1.267a11.8,11.8,0,0,0-1.27-.646c-.388-.246-.836-.451-1.236-.68s-.849-.443-1.248-.668-.848-.455-1.25-.667-.815-.524-1.206-.71-.865-.542-1.229-.687-1.086-.8-1.115-.212,0,1.329,0,1.916A9.078,9.078,0,0,0,238.048,843.868Z" transform="translate(-237.74 -840.088)" fill="none" stroke="#f3d7c6" stroke-width="0.3"/>
        </g>
        <g id="Grupo_41" data-name="Grupo 41" transform="translate(16.756 46.287)">
          <path id="Caminho_79" data-name="Caminho 79" d="M345.029,942c-1.42,2.8-2.715,5.726-4.029,8.6,1.821-2.239,2.514-5.208,3.931-7.715a25.154,25.154,0,0,1,2.393,4.388,15.219,15.219,0,0,0,2.57,4.211C348.25,948.346,346.711,945.123,345.029,942Z" transform="translate(-341 -942)" fill="none" stroke="#f6ded0" stroke-width="0.3"/>
        </g>
        <g id="Grupo_42" data-name="Grupo 42" transform="translate(25.06 54.051)">
          <path id="Caminho_80" data-name="Caminho 80" d="M511.327,1101.867a.176.176,0,0,1,0-.049c.035-.32.18-.61.2-.934-.162.212-.163.143-.295,0,.044.215-.148.093-.1-.049-.211.187-.348.06-.147-.147-.149-.028-.129.166-.246.2-.071-.158-.188-.239-.344-.147.081-.2-.158-.118,0-.295-.224.111-.2-.36-.393-.442a15.461,15.461,0,0,0,1.13,2.506A2.5,2.5,0,0,1,511.327,1101.867Z" transform="translate(-510 -1100)" fill="none" stroke="#f5d5c4" stroke-width="0.3"/>
        </g>
        <g id="Grupo_43" data-name="Grupo 43" transform="translate(13.07 57.147)">
          <path id="Caminho_81" data-name="Caminho 81" d="M266.344,1165.512a65.883,65.883,0,0,0,7.125.393c2.416-.034,4.772-.186,7.125-.393a4.733,4.733,0,0,1,.884-.1c-.463-.391-.849-1.026-1.388-1.314s-.884-1.12-1.559-1.092-1.629.293-2.359.344a12.692,12.692,0,0,1-2.409.245c-.776-.1-1.621-.172-2.348-.306a9.2,9.2,0,0,0-2.468-.235c-.7.093-.941.83-1.511,1.142s-.9.885-1.437,1.216A1.309,1.309,0,0,0,266.344,1165.512Z" transform="translate(-266 -1163.006)" fill="none" stroke="#e7bca7" stroke-width="0.3"/>
        </g>
        <g id="Grupo_44" data-name="Grupo 44" transform="translate(22.554 60.783)">
          <path id="Caminho_82" data-name="Caminho 82" d="M459,1237.049c.184,0,.39-.034.541-.049C459.356,1237,459.151,1237.034,459,1237.049Z" transform="translate(-459 -1237)" fill="none" stroke="#b0968b" stroke-width="0.3"/>
        </g>
        <g id="Grupo_46" data-name="Grupo 46" transform="translate(20.785 9.658)">
          <path id="Caminho_84" data-name="Caminho 84" d="M423,196.581c.176-.014.363,0,.541,0A1.719,1.719,0,0,0,423,196.581Z" transform="translate(-423 -196.559)" fill="#b8a59d"/>
        </g>
        <g id="Grupo_47" data-name="Grupo 47" transform="translate(2.933 9.673)">
          <path id="Caminho_85" data-name="Caminho 85" d="M74.242,211.062c-.007.178.092.786-.049.884-.76-.036-1.608.048-2.359,0s-1.694-.147-1.572.737-.084,1.507,0,2.309-.208,1.389.295,2.015c-.508.31-1.052.63-1.536.97s-.941.691-1.409,1.048-.961.672-1.417,1.04-.872.769-1.327,1.13-.865.768-1.3,1.155-.849.779-1.278,1.179-.81.8-1.228,1.228-.718.841-1.152,1.3-.131,1.374-.031,2.016.264,1.4.413,2.044.364,1.3.521,1.936.409,1.24.606,1.85.445,1.2.671,1.786.486,1.151.738,1.719.536,1.1.805,1.652.571,1.057.865,1.592.617,1.054.934,1.572.623.99.96,1.5.658.937,1.006,1.451.667.88,1.034,1.423.715,1,1.453,1,1.487.172,2.241.216,1.529.126,2.309.147,1.6.062,2.411.046,1.647,0,2.457,0c.151-.015.356-.049.54-.049.676.03,1.413-.064,2.064-.1a19.253,19.253,0,0,0,1.965-.147c.609-.1,1.381-.087,1.933-.229s.648-.739,1-1.112.577-.86.911-1.252.544-.847.861-1.252.537-.855.835-1.278.544-.906.811-1.351.535-.869.778-1.335.5-.945.737-1.425.433-.955.669-1.444.448-1,.657-1.5.383-1,.587-1.526.335-1.048.523-1.59.284-1.141.461-1.7.225-1.142.393-1.72.162-1.229.344-1.818a1.3,1.3,0,0,0-.483-1.441c-.439-.381-.633-.714-1.032-1.081s-.707-.711-1.081-1.081-.7-.691-1.081-1.032-.765-.678-1.155-1.007-.761-.629-1.163-.95-.8-.639-1.22-.942-.745-.614-1.188-.925-.733-.569-1.22-.893-.955-.541-.848-1.216a14.512,14.512,0,0,0,0-2.113,16.7,16.7,0,0,0,0-2.162c-.088-.665-1.173-.321-1.719-.394s-1.528.054-2.113,0c-.041-.76.142-1.645-.442-2.211a5.941,5.941,0,0,0,3.329-2.666,6.177,6.177,0,0,0,.64-4.792,7.081,7.081,0,0,0-2.442-3.553c-1.21-.838-2.6-1.833-4.082-1.863-.177,0-.364-.014-.541,0a8.268,8.268,0,0,0-6.6,5.345,6.012,6.012,0,0,0,3.745,7.48,2.35,2.35,0,0,0-.442,1.376m4.128-14.053a5.23,5.23,0,0,1,.786.491c1.324.745,3.267,1.472,3.98,3a5.8,5.8,0,0,1,.888,5.311c-.715,1.6-1.634,3.055-3.394,3.485a3.474,3.474,0,0,1-1.671.147,14.939,14.939,0,0,0-1.867-.049,5.062,5.062,0,0,1-1.72.049,5.379,5.379,0,0,1-2.666-1.511,5.742,5.742,0,0,1-1.462-2.715,5.63,5.63,0,0,1,.442-3.44,8.941,8.941,0,0,1,.786-1.474,8.028,8.028,0,0,1,3.046-2.408c.407-.229.806-.5,1.228-.688a5.053,5.053,0,0,1,.786-.246.987.987,0,0,1,.295-.049,2.065,2.065,0,0,1,.541.1m2.113,13.267a4.519,4.519,0,0,1,.147,1.032,1.381,1.381,0,0,1,.049.491H74.635c-.031-.557.024-.925.038-1.485s.63-.528,1.092-.481h3.341c.591,0,1.229-.208,1.376.442m3.931,2.211c.01.506-.049.972-.049,1.474v2.85H75.029c-.484,0-.993-.047-1.474,0s-1.016.049-1.523.049h-.737a1.674,1.674,0,0,1-.541.049c.019-.583-.026-1.188,0-1.769s-.039-1.211-.049-1.769-.231-1.307.442-1.228,1.174-.069,1.8.016,1.156,0,1.785.033h5.749a4.415,4.415,0,0,1,.442-.049c1.136-.11,2.366-.02,3.538-.049-.028.124.058.31-.049.393m-11.94,4.865c.376-.007.754,0,1.13,0,.781,0,1.617-.023,2.359.049h4.766c.425-.041.917-.049,1.376-.049.842,0,2.093-.19,2.688.408a15.746,15.746,0,0,0,1.738,1.406c.614.477,1.167.865,1.753,1.343s1.179.911,1.744,1.4,1.084.968,1.644,1.452,1.052,1.048,1.6,1.545,1.071,1.026,1.609,1.536a48.391,48.391,0,0,1-2.986,10.134,47.266,47.266,0,0,1-4.876,8.293c-.187.272-.363.457-.537.741s-.437.42-.581.745-.616.055-.6.43c-.3-.009-.576.085-.884.049-2.353.207-4.709.359-7.125.393a65.856,65.856,0,0,1-7.125-.393c-.215-.02-.565.037-.541-.295-.278.235-.448-.194-.59-.393-1.287-1.955-2.631-3.479-3.8-5.538a39.045,39.045,0,0,1-3-6.338,47.231,47.231,0,0,1-1.851-7.534c-.018-.108-.083-.264-.1-.393,1.259-1.223,2.5-2.461,3.784-3.636.509-.434.956-.866,1.486-1.265s.965-.835,1.5-1.253,1.046-.763,1.589-1.212a15.146,15.146,0,0,0,1.556-1.2A2.863,2.863,0,0,1,72.473,217.351Z" transform="translate(-59.682 -196.854)" fill="#815141"/>
        </g>
        <g id="Grupo_48" data-name="Grupo 48" transform="translate(17.288 9.729)">
          <path id="Caminho_86" data-name="Caminho 86" d="M355.322,198.046c-.458.255-.656.905-1.047,1.263a9.148,9.148,0,0,0-.98,1.329,11.021,11.021,0,0,0-.835,1.474,8.014,8.014,0,0,0-.577,1.732,9.912,9.912,0,0,0,.164,3.129,5.336,5.336,0,0,0,1.175,2.264c.554.636,1.4,1.336,2.248,1.093.478-.272.3-1.063.393-1.523s.128-1.246.193-1.723a7.4,7.4,0,0,0,.053-.881c.024-.389-.016-.631,0-.983a7.245,7.245,0,0,0-.049-.934c-.023-.323.051-.628,0-.934a4.8,4.8,0,0,1-.049-.934c.01-.314-.005-.628,0-.934s-.052-.641-.049-.934a4.431,4.431,0,0,0-.095-.839,5.75,5.75,0,0,0-.091-.892c-.089-.209.029-.718-.158-.825A.985.985,0,0,0,355.322,198.046Z" transform="translate(-351.824 -197.997)" fill="#f9eade"/>
        </g>
        <g id="Grupo_49" data-name="Grupo 49" transform="translate(20.932 9.729)">
          <path id="Caminho_87" data-name="Caminho 87" d="M426,210.333a1.67,1.67,0,0,1,.672-.082c.229.029.42.165.606.18.5-.012,1.031-.815,1.364-1.192a6.411,6.411,0,0,0,.946-1.609,5.552,5.552,0,0,1-.639.835,13.5,13.5,0,0,0,.7-1.754,6.033,6.033,0,0,0,.28-2.226,11.545,11.545,0,0,0-.488-1.969c-.161-.64-.834-1.026-.642-1.667a6.224,6.224,0,0,1,1.474,3.931c.034-.159.231-.361.1-.541.317.089.136.326.552.159s.845-.394,1.266-.552a5.174,5.174,0,0,1-.824,4.434c-.967,1.146-2.171,1.53-3.353,2.249a5.163,5.163,0,0,0,.934-.147c1.761-.429,2.679-1.887,3.394-3.485a5.8,5.8,0,0,0-.888-5.311c.171.365.337.819.488,1.183s.4,1.045-.1,1.172-.729.405-1.224.5c-.237-2.387-2.035-4.113-3.587-5.847-.124-.124-.4-.359-.344-.491a2.065,2.065,0,0,0-.54-.1c.188.106.069.616.158.825a5.753,5.753,0,0,1,.091.892,4.426,4.426,0,0,1,.095.839c0,.293.055.628.049.934s.01.619,0,.934a4.8,4.8,0,0,0,.049.934c.051.306-.023.61,0,.934a7.245,7.245,0,0,1,.049.934c-.016.351.024.594,0,.983a7.4,7.4,0,0,1-.053.881c-.065.478-.1,1.263-.193,1.723S426.478,210.062,426,210.333Z" transform="translate(-426 -198)" fill="#e2ab90"/>
        </g>
        <g id="Grupo_50" data-name="Grupo 50" transform="translate(16.707 9.778)">
          <path id="Caminho_88" data-name="Caminho 88" d="M343.292,199.246a5.546,5.546,0,0,1-.529.7,8.24,8.24,0,0,0-.639.786c-.2.25-.4.562-.59.835s-.407.543-.589.836a8.947,8.947,0,0,0-.5.926,6.717,6.717,0,0,0-.446,1.028,2.106,2.106,0,0,1,.258-.479c.121-.171.409.112.528.037.011.31-.136.579-.147.884a8.015,8.015,0,0,1,.577-1.732,11.026,11.026,0,0,1,.835-1.474,9.15,9.15,0,0,1,.98-1.329c.39-.358.589-1.008,1.047-1.263A5.051,5.051,0,0,0,343.292,199.246Z" transform="translate(-340 -199)" fill="#e3b298"/>
        </g>
        <g id="Grupo_51" data-name="Grupo 51" transform="translate(21.614 9.827)">
          <path id="Caminho_89" data-name="Caminho 89" d="M440.215,200.491c.169.17.4.482.639.393a1.712,1.712,0,0,0-.2-.393,5.231,5.231,0,0,0-.786-.491C439.819,200.132,440.091,200.368,440.215,200.491Z" transform="translate(-439.865 -200)" fill="#edd7cc"/>
        </g>
        <g id="Grupo_52" data-name="Grupo 52" transform="translate(14.692 10.024)">
          <path id="Caminho_90" data-name="Caminho 90" d="M303.078,204.688c-.08.065-.124.185-.246.2.238.149-.265.444-.455.676s-.5.473-.712.712a9.643,9.643,0,0,0-.7.725c-.126,0-.021-.277-.246-.147-.035-.356.217-.573.491-.884-.5.213-.8.775-1.179,1.13a8.937,8.937,0,0,0-.786,1.474,15.565,15.565,0,0,1-.246,1.572c.121-.015.058-.163.147-.2a1.535,1.535,0,0,1,.2-.54c.488.311.986.67,1.474.983a3.8,3.8,0,0,1,.2-1.278,6.712,6.712,0,0,1,.446-1.028,8.931,8.931,0,0,1,.5-.926c.182-.292.4-.563.589-.836s.385-.585.59-.835a8.239,8.239,0,0,1,.639-.786,5.539,5.539,0,0,0,.529-.7C303.885,204.184,303.486,204.458,303.078,204.688Z" transform="translate(-299 -204)" fill="#f7e0d2"/>
        </g>
        <g id="Grupo_53" data-name="Grupo 53" transform="translate(21.964 10.319)">
          <path id="Caminho_91" data-name="Caminho 91" d="M451.422,213c-.713-1.526-2.656-2.252-3.98-3a1.71,1.71,0,0,1,.2.393c-.235.089-.469-.224-.639-.393,1.552,1.734,3.35,3.461,3.587,5.847.5-.09.724-.368,1.224-.5s.25-.808.1-1.172S451.593,213.362,451.422,213Z" transform="translate(-447 -210)" fill="#eabfa8"/>
        </g>
        <g id="Grupo_54" data-name="Grupo 54" transform="translate(15.724 10.712)">
          <path id="Caminho_92" data-name="Caminho 92" d="M320,220.408c.384-.355.675-.917,1.179-1.13-.275.311-.527.529-.491.884.225-.129.119.147.246.147a9.64,9.64,0,0,1,.7-.725c.208-.24.523-.481.712-.712s.693-.527.455-.676c.122-.012.166-.132.246-.2A8.028,8.028,0,0,0,320,220.408Z" transform="translate(-320 -218)" fill="#ebc2ae"/>
        </g>
        <g id="Grupo_55" data-name="Grupo 55" transform="translate(23.699 12.579)">
          <path id="Caminho_93" data-name="Caminho 93" d="M483.127,262.781a6.9,6.9,0,0,0,.688-2.85A6.224,6.224,0,0,0,482.341,256c-.192.641.481,1.027.642,1.667a11.548,11.548,0,0,1,.488,1.969,6.032,6.032,0,0,1-.28,2.226,13.5,13.5,0,0,1-.7,1.754A5.556,5.556,0,0,0,483.127,262.781Z" transform="translate(-482.307 -256)" fill="#f4dfd1"/>
        </g>
        <g id="Grupo_56" data-name="Grupo 56" transform="translate(14.374 14.594)">
          <path id="Caminho_94" data-name="Caminho 94" d="M296.769,304.665c.124.027.272.1.393,0-2.026-.651-4-2.348-4.275-4.57a4.336,4.336,0,0,1,.1-1.72c-.089.034-.027.182-.147.2a15.582,15.582,0,0,0,.246-1.572,5.63,5.63,0,0,0-.442,3.44,5.742,5.742,0,0,0,1.462,2.715A5.379,5.379,0,0,0,296.769,304.665Z" transform="translate(-292.52 -297)" fill="#dfad96"/>
        </g>
        <g id="Grupo_57" data-name="Grupo 57" transform="translate(14.689 14.599)">
          <path id="Caminho_95" data-name="Caminho 95" d="M300.952,297.652a3.8,3.8,0,0,0-.2,1.278c-.488-.313-.986-.672-1.474-.983a1.534,1.534,0,0,0-.2.541,4.335,4.335,0,0,0-.1,1.72,5.286,5.286,0,0,1,.049-1.179c.16.149.243-.058.344.1-.019-.195.273-.238.295-.442.1.122.224.058.344,0-.082.288.129.39.344.393.071-.07-.021-.191.049-.295.566.581.589,1.532.873,2.272a7.827,7.827,0,0,0,1.1,2.089A11.643,11.643,0,0,0,304,304.727a3.406,3.406,0,0,1,.835-.049c.226.005.777.014.442-.1a2.315,2.315,0,0,1,1.179.1c-.186-.015-.376-.151-.606-.18a1.67,1.67,0,0,0-.672.082c-.843.242-1.694-.457-2.248-1.093a5.336,5.336,0,0,1-1.175-2.264,9.911,9.911,0,0,1-.164-3.129c.012-.306.159-.574.147-.884-.119.075-.407-.207-.528-.037A2.109,2.109,0,0,0,300.952,297.652Z" transform="translate(-298.934 -297.117)" fill="#cc9078"/>
        </g>
        <g id="Grupo_58" data-name="Grupo 58" transform="translate(14.726 15.576)">
          <path id="Caminho_96" data-name="Caminho 96" d="M310.174,317.934a6.9,6.9,0,0,1-.688,2.85,6.413,6.413,0,0,1-.946,1.609c-.332.376-.861,1.179-1.364,1.192a2.315,2.315,0,0,0-1.179-.1c.335.112-.217.1-.442.1a3.406,3.406,0,0,0-.835.049,11.642,11.642,0,0,1-1.609-1.585,7.827,7.827,0,0,1-1.1-2.089c-.284-.74-.307-1.69-.873-2.272-.07.1.022.225-.049.295-.215,0-.426-.1-.344-.393-.12.058-.245.122-.344,0-.022.2-.314.248-.295.442-.1-.157-.184.051-.344-.1a5.285,5.285,0,0,0-.049,1.179c.275,2.222,2.248,3.919,4.275,4.57-.121.1-.269.027-.393,0a5.062,5.062,0,0,0,1.72-.049,14.939,14.939,0,0,1,1.867.049,3.474,3.474,0,0,0,1.671-.147,5.165,5.165,0,0,1-.934.147c1.182-.719,2.386-1.1,3.353-2.249A5.173,5.173,0,0,0,312.09,317c-.421.158-.851.384-1.266.552s-.234-.069-.552-.159C310.4,317.573,310.208,317.775,310.174,317.934Z" transform="translate(-299.693 -317)" fill="#aa6e59"/>
        </g>
        <g id="Grupo_59" data-name="Grupo 59" transform="translate(17.877 22.628)">
          <path id="Caminho_97" data-name="Caminho 97" d="M365.147,462.505a.412.412,0,0,1,0-.049h-1.278a10.627,10.627,0,0,1,.049-1.572c.082.145.017.343.2.442.415-.123.483-.617.835-.786-.461-.048-1.078-.079-1.092.481s-.069.928-.038,1.485Z" transform="translate(-363.811 -460.516)" fill="#cf9075"/>
        </g>
        <g id="Grupo_60" data-name="Grupo 60" transform="translate(17.93 22.652)">
          <path id="Caminho_98" data-name="Caminho 98" d="M366.183,462.916h.2c1.1-.149,2.3.01,3.44-.049a3.7,3.7,0,0,0-.393-1.818c-.056-.007-.066-.041-.1-.049h-3.341c-.352.17-.42.663-.835.786-.179-.1-.115-.3-.2-.442a10.627,10.627,0,0,0-.049,1.572Z" transform="translate(-364.901 -461)" fill="#e6ad92"/>
        </g>
        <g id="Grupo_61" data-name="Grupo 61" transform="translate(22.357 22.621)">
          <path id="Caminho_99" data-name="Caminho 99" d="M455.1,460.437c.55.068,1.066-.2,1.278.393-.146-.65-.785-.442-1.376-.442C455.032,460.4,455.043,460.43,455.1,460.437Z" transform="translate(-455 -460.356)" fill="#aa735c"/>
        </g>
        <g id="Grupo_62" data-name="Grupo 62" transform="translate(19.409 22.697)">
          <path id="Caminho_100" data-name="Caminho 100" d="M395,463.78h4.471v-.442a4.52,4.52,0,0,0-.147-1.032c-.212-.6-.727-.325-1.278-.393a3.7,3.7,0,0,1,.393,1.818C397.3,463.79,396.1,463.631,395,463.78Z" transform="translate(-395 -461.909)" fill="#d49679"/>
        </g>
        <g id="Grupo_63" data-name="Grupo 63" transform="translate(17.435 23.881)">
          <path id="Caminho_101" data-name="Caminho 101" d="M354.838,486.884c.141-.1.042-.707.049-.884A4.069,4.069,0,0,0,354.838,486.884Z" transform="translate(-354.83 -486)" fill="#b99f93"/>
        </g>
        <g id="Grupo_64" data-name="Grupo 64" transform="translate(19.212 24.126)">
          <path id="Caminho_102" data-name="Caminho 102" d="M391.18,491.442h-.2a.407.407,0,0,0,0,.049H395.7a1.381,1.381,0,0,0-.049-.491v.442Z" transform="translate(-390.982 -491)" fill="#9e6852"/>
        </g>
        <g id="Grupo_65" data-name="Grupo 65" transform="translate(24.175 24.905)">
          <path id="Caminho_103" data-name="Caminho 103" d="M492,506.907c.512,0,1.046.045,1.523,0,.161-.015.33,0,.491,0h1.474v.344c.108-.084.022-.269.049-.393C494.366,506.886,493.136,506.8,492,506.907Z" transform="translate(-492 -506.85)" fill="#a7705b"/>
        </g>
        <g id="Grupo_66" data-name="Grupo 66" transform="translate(13.912 24.95)">
          <path id="Caminho_104" data-name="Caminho 104" d="M283.765,512.5h-.491c.008-.5.627-.328,1.081-.344s.4-.568.393-1.032.019-.976,0-1.474.044-.88,0-1.425.539-.378.983-.344,1.019-.026,1.474,0a.406.406,0,0,1,0-.049c-.629-.028-1.158.052-1.785-.033s-1.128.062-1.8-.016-.452.671-.442,1.228.075,1.188.049,1.769.019,1.186,0,1.769A1.674,1.674,0,0,0,283.765,512.5Z" transform="translate(-283.133 -507.773)" fill="#d99d82"/>
        </g>
        <g id="Grupo_67" data-name="Grupo 67" transform="translate(23.733 24.962)">
          <path id="Caminho_105" data-name="Caminho 105" d="M483,508.049h1.523c0,1.515,0,3.094,0,4.57h.393c-.138-.092.054-.613,0-.835a7.206,7.206,0,0,1,0-.934c-.013-.265-.013-.714,0-.983a7.209,7.209,0,0,1,0-.934c.054-.235-.145-.8.049-.934-.478.045-1.011,0-1.523,0A4.417,4.417,0,0,0,483,508.049Z" transform="translate(-483 -508)" fill="#cc9075"/>
        </g>
        <g id="Grupo_68" data-name="Grupo 68" transform="translate(25.599 24.955)">
          <path id="Caminho_106" data-name="Caminho 106" d="M521.016,512.488h1.916v-.2a3.535,3.535,0,0,0-.934-.049c-.374.075-.481-.207-.442-.54s-.009-.665,0-.983.014-.687,0-.983.046-.73,0-.983.224-.726,0-.884c-.161,0-.331-.015-.491,0-.195.138,0,.7-.049.934a7.215,7.215,0,0,0,0,.934c-.013.269-.013.717,0,.983a7.212,7.212,0,0,0,0,.934C521.069,511.875,520.878,512.4,521.016,512.488Z" transform="translate(-520.965 -507.862)" fill="#e8b8a0"/>
        </g>
        <g id="Grupo_69" data-name="Grupo 69" transform="translate(26.183 24.962)">
          <path id="Caminho_107" data-name="Caminho 107" d="M534.234,512.422a25.11,25.11,0,0,0,.049-2.6c0-.5.059-.968.049-1.474V508h-1.474c.224.159-.046.631,0,.884s-.014.687,0,.983.009.665,0,.983.038.65,0,.983.068.615.442.54A3.54,3.54,0,0,1,534.234,512.422Z" transform="translate(-532.851 -508)" fill="#da9e83"/>
        </g>
        <g id="Grupo_70" data-name="Grupo 70" transform="translate(14.053 25.009)">
          <path id="Caminho_108" data-name="Caminho 108" d="M286.491,513.635h.737a.412.412,0,0,1,0-.049c-.2,0-.562.079-.59-.2,1.249-.035,2.388.013,3.636.049-.426.251-1.076-.025-1.523.147.481-.047.991,0,1.474,0,2.253-.218,4.68-.049,6.977-.049,0-1.476,0-3.054,0-4.57H294.55a.406.406,0,0,1,0,.049h.786c.031.52-.041,1.108,0,1.621s-.092,1.087-.049,1.572-.259,1.344.442,1.228c-1.676.115-3.447.016-5.159.049v-4.422c1.155-.033,2.374.065,3.489-.049h-4.127c-.456-.026-1.03.034-1.474,0s-1.026-.2-.983.344-.019.927,0,1.425-.009,1.01,0,1.474.061,1.016-.393,1.032-1.073-.154-1.081.344h.491m1.671-4.521c.455.1.316.533.344.934s-.047.9,0,1.327a9.73,9.73,0,0,0,0,1.278c.1.438-.311.869-.393.344a12.305,12.305,0,0,1,0-1.277c-.038-.476.023-.87,0-1.327A8.7,8.7,0,0,1,288.162,509.115Z" transform="translate(-286 -508.966)" fill="#ecbfa7"/>
        </g>
        <g id="Grupo_71" data-name="Grupo 71" transform="translate(17.983 25.011)">
          <path id="Caminho_109" data-name="Caminho 109" d="M365.983,509.049H370.6a.412.412,0,0,0,0-.049h-4.619A.412.412,0,0,0,365.983,509.049Z" transform="translate(-365.982 -509)" fill="#ae7c6a"/>
        </g>
        <g id="Grupo_72" data-name="Grupo 72" transform="translate(18.623 25.06)">
          <path id="Caminho_110" data-name="Caminho 110" d="M382.98,510h-.491c-1.114.115-2.334.016-3.489.049v4.422c1.712-.033,3.484.065,5.159-.049-.7.116-.4-.743-.442-1.228s.09-1.059.049-1.572.031-1.1,0-1.622Z" transform="translate(-379 -510)" fill="#f6e4d5"/>
        </g>
        <g id="Grupo_73" data-name="Grupo 73" transform="translate(16.137 25.158)">
          <path id="Caminho_111" data-name="Caminho 111" d="M328.488,512a8.7,8.7,0,0,0-.049,1.278c.023.457-.038.851,0,1.327a12.306,12.306,0,0,0,0,1.277c.082.526.5.094.393-.344a9.708,9.708,0,0,1,0-1.277c-.047-.422.027-.926,0-1.327S328.943,512.1,328.488,512Z" transform="translate(-328.41 -512)" fill="#daa287"/>
        </g>
        <g id="Grupo_74" data-name="Grupo 74" transform="translate(18.279 26.78)">
          <path id="Caminho_112" data-name="Caminho 112" d="M381.287,547.6v.2h-2.309c-2.3,0-4.725-.169-6.977.049h9.336V545A25.109,25.109,0,0,1,381.287,547.6Z" transform="translate(-372 -545)" fill="#a4705c"/>
        </g>
        <g id="Grupo_75" data-name="Grupo 75" transform="translate(14.692 29.421)">
          <path id="Caminho_113" data-name="Caminho 113" d="M299.59,598.959c.5,0,1.026.048,1.523,0,.448-.172,1.1.1,1.523-.147-1.249-.036-2.388-.084-3.636-.049C299.028,599.038,299.391,598.959,299.59,598.959Z" transform="translate(-299 -598.75)" fill="#f1d6c8"/>
        </g>
        <g id="Grupo_76" data-name="Grupo 76" transform="translate(15.281 29.63)">
          <path id="Caminho_114" data-name="Caminho 114" d="M310.983,603.049c.508,0,1.051,0,1.523-.049-.5.048-1.024,0-1.523,0A.407.407,0,0,0,310.983,603.049Z" transform="translate(-310.982 -603)" fill="#aa7a66"/>
        </g>
        <g id="Grupo_77" data-name="Grupo 77" transform="translate(3.587 30.127)">
          <path id="Caminho_115" data-name="Caminho 115" d="M76.734,618.516C75.5,619.752,74.205,620.927,73,622.2c.38.229.937-.045,1.36.115s1.121-.065,1.146.475c-.52.2-1.055-.256-1.523-.1.868.938,1.893,1.69,2.764,2.641s2.047,1.581,2.875,2.58,1.1,2.495,1.77,3.635.99,2.617,1.731,3.723c-.509-1.532-.988-2.963-1.414-4.531a15.436,15.436,0,0,1-.944-4.952c.156.1.15-.073.246-.147a7.183,7.183,0,0,0,.393,2.408,9.079,9.079,0,0,1-.294-1.622c0-.587-.029-1.327,0-1.916s.751.066,1.115.212.837.5,1.229.688.8.5,1.206.71.85.442,1.25.667.848.439,1.248.668.848.435,1.236.681a11.778,11.778,0,0,1,1.27.646c.348.291-.222.887-.363,1.267s-.446.887-.62,1.3-.495.891-.643,1.323c.1-.115.186-.05.295-.1.013.112-.17.275.049.2a3.218,3.218,0,0,1-.382.994c-.16.319-.3.653-.45.975s-.278.614-.442.934-.3.649-.442.983-.282.592-.442.934a10.32,10.32,0,0,1-.461.964,6.318,6.318,0,0,1-.465.911c-.3.411-.021.54.481.431a10.041,10.041,0,0,1,1.375,0c.479-.047.9-.039,1.376-.049s.91.009,1.376,0,.965.014,1.425,0,.929.029,1.376,0,1,.06,1.425,0,.927.116,1.24.06.336-.773.431-.993a2.5,2.5,0,0,0-.2.639,15.471,15.471,0,0,1-1.13-2.506c.2.083.17.554.393.442-.158.176.081.093,0,.295.156-.092.273-.01.344.147.117-.031.1-.224.246-.2-.2.208-.063.335.147.147-.05.143.142.264.1.049.132.143.133.212.295,0-.016.323-.161.613-.2.934.369-.458.264-1.272.54-1.819a16.272,16.272,0,0,0,.59-1.818c.21-.586.371-1.225.589-1.818s.351-1.207.538-1.821.39-1.231.541-1.867.32-1.262.511-1.9.248-1.373.377-2.031c.451.311.249,1.2.132,1.754s-.349,1.167-.473,1.738-.29,1.186-.461,1.75-.34,1.15-.492,1.719-.383,1.091-.57,1.641-.359,1.124-.543,1.668a6.339,6.339,0,0,0-.541,1.621c.579-1.411,1.359-2.786,1.954-4.188s1.417-2.812,1.992-4.2,1.779-2.283,2.822-3.369,2.1-1.991,3.108-3.083c.118.08.077.089.246,0a20.7,20.7,0,0,1-.736,3.244c-.315,1.009-.661,2.024-1.029,3s-.827,1.887-1.2,2.831-.9,1.75-1.349,2.631-.95,1.734-1.451,2.578-1.039,1.651-1.554,2.476-1.4,1.712-1.036,2.7c.556-.411.832-1.163,1.376-1.621a47.269,47.269,0,0,0,4.876-8.293,48.392,48.392,0,0,0,2.986-10.134c-.539-.51-1.062-1.038-1.609-1.536s-1.04-1.061-1.6-1.545-1.079-.963-1.644-1.452-1.159-.922-1.744-1.4-1.139-.866-1.753-1.343a15.731,15.731,0,0,1-1.738-1.406c-.595-.6-1.846-.408-2.688-.408a.412.412,0,0,1,0,.049,5.089,5.089,0,0,1,1.179.049,7.668,7.668,0,0,0-.786.2c.36.307,1.026.336,1.41.7a13.8,13.8,0,0,0,1.156.957c.4.313.755.7,1.156,1.006s.756.632,1.13.983.75.686,1.13,1.032.7.69,1.1,1.016.68.73,1.089,1.073.6.718,1.032,1.081.666,1.225-.045,1.257a13.836,13.836,0,0,0-1.786.327c-.627.1-1.2.248-1.772.39s-1.2.485-1.41-.106-.481-.931-.7-1.467-.47-.915-.688-1.425-.554-.889-.779-1.383-.459-.931-.712-1.4-.482-.969-.723-1.439-.493-.914-.726-1.387-.477-.972-.7-1.462h-.393c1.584,3.494,3.429,6.911,5.11,10.368-.559.339-1.1.662-1.675.979s-1.135.651-1.717.937-1.136.651-1.722.931-1.136.662-1.727.926-1.164.654-1.743.911-1.225-.36-1.787-.6-1.146-.664-1.72-.933-1.151-.627-1.727-.926-1.153-.585-1.712-.941a9.953,9.953,0,0,1-1.654-1c-.52-.48.138-1.316.377-1.859s.572-1.235.854-1.8.584-1.2.884-1.769.623-1.158.914-1.739.656-1.12.953-1.7a8.025,8.025,0,0,0,.869-1.784h1.916c-.741-.072-1.577-.049-2.359-.049a.714.714,0,0,1,.246.1c-.739.252-.882,1.2-1.315,1.829s-.694,1.424-1.129,2.065-.674,1.413-1.059,2.085-.8,1.354-1.13,2.064-.836,1.345-1.115,2.078c-1.792-.4-3.623-.675-5.454-.934a3.593,3.593,0,0,1,1-1.364c.382-.414.768-.836,1.179-1.228s.776-.791,1.2-1.155.831-.779,1.253-1.155.829-.783,1.253-1.155.815-.753,1.253-1.106.793-.828,1.253-1.155.878-.906,1.437-.971a2.863,2.863,0,0,0-2.273.43,15.144,15.144,0,0,1-1.556,1.2c-.542.449-1.054.794-1.589,1.212s-.969.854-1.5,1.253-.978.831-1.486,1.265M90.2,629.277c1.681,3.123,3.22,6.346,4.865,9.483a15.22,15.22,0,0,1-2.57-4.211,25.149,25.149,0,0,0-2.393-4.388c-1.417,2.506-2.11,5.475-3.931,7.714C87.483,635,88.778,632.081,90.2,629.277Z" transform="translate(-73 -613.117)" fill="#ebbba2"/>
        </g>
        <g id="Grupo_78" data-name="Grupo 78" transform="translate(5.896 30.167)">
          <path id="Caminho_116" data-name="Caminho 116" d="M130.958,613.937c-.376,0-.754-.007-1.13,0-.56.064-.977.644-1.437.97s-.815.8-1.253,1.155-.828.735-1.253,1.106-.832.778-1.253,1.155-.825.791-1.253,1.155-.792.762-1.2,1.155-.8.814-1.179,1.228a3.593,3.593,0,0,0-1,1.364c1.831.259,3.662.53,5.454.934.279-.734.785-1.369,1.115-2.078s.745-1.391,1.13-2.064.624-1.445,1.059-2.085.7-1.433,1.129-2.065.576-1.577,1.315-1.829A.712.712,0,0,0,130.958,613.937Z" transform="translate(-120 -613.933)" fill="#f5dece"/>
        </g>
        <g id="Grupo_79" data-name="Grupo 79" transform="translate(23.979 30.17)">
          <path id="Caminho_117" data-name="Caminho 117" d="M488,614.049h1.376a.412.412,0,0,0,0-.049C488.917,614,488.425,614.008,488,614.049Z" transform="translate(-488 -614)" fill="#be8e79"/>
        </g>
        <g id="Grupo_80" data-name="Grupo 80" transform="translate(12.249 30.219)">
          <path id="Caminho_118" data-name="Caminho 118" d="M261.547,615h-7.223a8.023,8.023,0,0,1-.869,1.784c-.3.58-.661,1.12-.953,1.7s-.614,1.168-.914,1.739-.6,1.2-.884,1.769-.615,1.257-.854,1.8-.9,1.379-.377,1.859a9.95,9.95,0,0,0,1.654,1c.559.356,1.136.641,1.712.941s1.152.658,1.727.926,1.158.693,1.72.933,1.208.858,1.787.6,1.152-.647,1.743-.911,1.141-.646,1.727-.926,1.14-.645,1.722-.931,1.147-.62,1.717-.937,1.115-.64,1.675-.979C264.976,621.911,263.131,618.494,261.547,615Z" transform="translate(-249.277 -615)" fill="#f9ece3"/>
        </g>
        <g id="Grupo_81" data-name="Grupo 81" transform="translate(24.912 30.21)">
          <path id="Caminho_119" data-name="Caminho 119" d="M507.442,614.821H507c.224.49.466.99.7,1.462s.485.917.726,1.387.47.969.723,1.439.487.907.712,1.4.561.874.779,1.383.473.89.688,1.425.487.875.7,1.467.84.248,1.41.106,1.144-.292,1.772-.39a13.854,13.854,0,0,1,1.786-.327c.711-.032.473-.894.045-1.257s-.622-.738-1.032-1.081-.689-.748-1.089-1.073-.717-.67-1.1-1.016-.756-.682-1.13-1.032-.73-.673-1.13-.983-.752-.693-1.156-1.006a13.787,13.787,0,0,1-1.156-.957c-.384-.367-1.051-.4-1.41-.7a7.65,7.65,0,0,1,.786-.2A5.09,5.09,0,0,0,507.442,614.821Z" transform="translate(-507 -614.812)" fill="#f2cfbb"/>
        </g>
        <g id="Grupo_82" data-name="Grupo 82" transform="translate(3.538 35.526)">
          <path id="Caminho_120" data-name="Caminho 120" d="M72.1,727.029c.008-.064-.006-.132,0-.2,1.035.128.787,1.375,1.078,2.166s.435,1.766.73,2.563.543,1.657.861,2.431.646,1.541,1.005,2.287.743,1.462,1.088,2.2.8,1.413,1.172,2.12.835,1.379,1.236,2.056.873,1.344,1.318,1.974,1.147,1.5.6,2.2c-.225-.02-.247-.316-.442-.393.142.2.312.628.59.393-.025.332.326.275.541.295a1.309,1.309,0,0,1-.344-.1c.542-.331.867-.9,1.437-1.216s.808-1.049,1.511-1.142a9.2,9.2,0,0,1,2.468.235c.727.134,1.572.206,2.348.306a12.7,12.7,0,0,0,2.409-.245c.73-.051,1.684-.315,2.359-.344s1.02.8,1.559,1.092.925.923,1.388,1.314a4.733,4.733,0,0,0-.884.1c.308.036.584-.058.884-.049-.014-.375.457-.1.6-.43s.408-.461.581-.745.35-.469.537-.741c-.544.459-.82,1.211-1.376,1.622-.369-.986.521-1.875,1.036-2.7s1.053-1.632,1.554-2.476,1-1.7,1.451-2.578.977-1.688,1.349-2.631.83-1.855,1.2-2.831.714-1.991,1.029-3a20.7,20.7,0,0,0,.736-3.244c-.169.089-.128.08-.246,0-1.012,1.092-2.064,2-3.108,3.083s-2.248,1.981-2.822,3.369-1.4,2.8-1.992,4.2-1.375,2.777-1.954,4.188a6.338,6.338,0,0,1,.541-1.621c.184-.544.356-1.118.543-1.668s.418-1.072.57-1.641.32-1.156.492-1.719.338-1.178.461-1.75.356-1.184.473-1.738.318-1.443-.132-1.754c-.129.657-.186,1.4-.377,2.031s-.36,1.26-.511,1.9-.354,1.253-.541,1.867-.321,1.226-.538,1.82-.379,1.232-.589,1.819a16.271,16.271,0,0,1-.59,1.818c-.276.546-.171,1.361-.54,1.819a.179.179,0,0,0,0,.049c-.1.22-.118.937-.431.993s-.817-.119-1.24-.059-.978-.029-1.425,0-.916-.014-1.376,0-.959-.009-1.425,0-.9-.01-1.376,0-.9,0-1.376.049a10.022,10.022,0,0,0-1.375,0c-.5.109-.78-.021-.481-.431a6.315,6.315,0,0,0,.465-.911,10.326,10.326,0,0,0,.461-.964c.161-.342.3-.6.442-.934s.278-.664.442-.983.294-.611.442-.934.289-.656.45-.975a3.218,3.218,0,0,0,.382-.994c-.219.078-.036-.084-.049-.2-.109.048-.2-.017-.295.1-.821,2.4-2.263,4.614-3,7.027-1.377-3.8-2.623-7.709-3.636-11.646a7.183,7.183,0,0,1-.393-2.408c-.1.074-.09.247-.246.147a15.437,15.437,0,0,0,.944,4.952c.426,1.568.906,3,1.414,4.531-.741-1.107-1.066-2.583-1.731-3.723S79.5,733.4,78.67,732.4s-2-1.629-2.875-2.58-1.9-1.7-2.764-2.641c.468-.158,1,.3,1.523.1-.025-.54-.724-.315-1.146-.475s-.979.115-1.36-.115c1.205-1.275,2.5-2.449,3.734-3.685-1.285,1.175-2.525,2.413-3.784,3.636C72.016,726.765,72.08,726.922,72.1,727.029Z" transform="translate(-72 -723)" fill="#c38871"/>
        </g>
        <g id="Grupo_83" data-name="Grupo 83" transform="translate(3.634 39.359)">
          <path id="Caminho_121" data-name="Caminho 121" d="M73.968,801.2a47.231,47.231,0,0,0,1.851,7.534,39.043,39.043,0,0,0,3,6.338c1.167,2.059,2.511,3.583,3.8,5.538.2.077.217.373.442.393.545-.7-.156-1.57-.6-2.2s-.918-1.3-1.318-1.974-.861-1.349-1.236-2.056-.826-1.379-1.172-2.12-.729-1.458-1.088-2.2-.688-1.512-1.005-2.287-.568-1.634-.861-2.431-.439-1.772-.73-2.562S75,801.128,73.968,801C73.962,801.065,73.976,801.132,73.968,801.2Z" transform="translate(-73.966 -801)" fill="#e6af95"/>
        </g>
        <g id="Grupo_84" data-name="Grupo 84" transform="translate(11.682 41.279)">
          <path id="Caminho_122" data-name="Caminho 122" d="M238.048,843.868c1.013,3.937,2.259,7.842,3.636,11.646.734-2.413,2.177-4.628,3-7.027.148-.432.468-.914.643-1.323s.479-.917.62-1.3.711-.975.363-1.267a11.8,11.8,0,0,0-1.27-.646c-.388-.246-.836-.451-1.236-.68s-.849-.443-1.248-.668-.848-.455-1.25-.667-.815-.524-1.206-.71-.865-.542-1.229-.687-1.086-.8-1.115-.212,0,1.329,0,1.916A9.078,9.078,0,0,0,238.048,843.868Z" transform="translate(-237.74 -840.088)" fill="#f3d7c6"/>
        </g>
        <g id="Grupo_85" data-name="Grupo 85" transform="translate(16.756 46.287)">
          <path id="Caminho_123" data-name="Caminho 123" d="M345.029,942c-1.42,2.8-2.715,5.726-4.029,8.6,1.821-2.239,2.514-5.208,3.931-7.715a25.154,25.154,0,0,1,2.393,4.388,15.219,15.219,0,0,0,2.57,4.211C348.25,948.346,346.711,945.123,345.029,942Z" transform="translate(-341 -942)" fill="#f6ded0"/>
        </g>
        <g id="Grupo_86" data-name="Grupo 86" transform="translate(25.06 54.051)">
          <path id="Caminho_124" data-name="Caminho 124" d="M511.327,1101.867a.176.176,0,0,1,0-.049c.035-.32.18-.61.2-.934-.162.212-.163.143-.295,0,.044.215-.148.093-.1-.049-.211.187-.348.06-.147-.147-.149-.028-.129.166-.246.2-.071-.158-.188-.239-.344-.147.081-.2-.158-.118,0-.295-.224.111-.2-.36-.393-.442a15.461,15.461,0,0,0,1.13,2.506A2.5,2.5,0,0,1,511.327,1101.867Z" transform="translate(-510 -1100)" fill="#f5d5c4"/>
        </g>
        <g id="Grupo_87" data-name="Grupo 87" transform="translate(13.07 57.147)">
          <path id="Caminho_125" data-name="Caminho 125" d="M266.344,1165.512a65.883,65.883,0,0,0,7.125.393c2.416-.034,4.772-.186,7.125-.393a4.733,4.733,0,0,1,.884-.1c-.463-.391-.849-1.026-1.388-1.314s-.884-1.12-1.559-1.092-1.629.293-2.359.344a12.692,12.692,0,0,1-2.409.245c-.776-.1-1.621-.172-2.348-.306a9.2,9.2,0,0,0-2.468-.235c-.7.093-.941.83-1.511,1.142s-.9.885-1.437,1.216A1.309,1.309,0,0,0,266.344,1165.512Z" transform="translate(-266 -1163.006)" fill="#e7bca7"/>
        </g>
        <g id="Grupo_88" data-name="Grupo 88" transform="translate(22.554 60.783)">
          <path id="Caminho_126" data-name="Caminho 126" d="M459,1237.049c.184,0,.39-.034.541-.049C459.356,1237,459.151,1237.034,459,1237.049Z" transform="translate(-459 -1237)" fill="#b0968b"/>
        </g>
      </g>
      <g id="Grupo_97" data-name="Grupo 97" transform="translate(88.625 18.642)">
        <path id="Caminho_133" data-name="Caminho 133" d="M351.9,466.917a4.627,4.627,0,0,1-3.411,6.734c-2.774.446-5.428-1.168-7.462-3.192a28.667,28.667,0,0,0-6.033-5,10.61,10.61,0,0,0-8.686-.457c-2.495,1.1-4.777,2.056-6.309,4.684a17.3,17.3,0,0,1,8.068-3.3c2.992-.481,6.01.967,8.184,3.062a45.028,45.028,0,0,0,6.076,5.483,8.33,8.33,0,0,0,8.715.268C353.552,473.553,354.171,469.061,351.9,466.917Z" transform="translate(-320 -464.284)" fill="#f2cfbb"/>
      </g>
      <path id="Caminho_132" data-name="Caminho 132" d="M430.427,410c2.488-1.552.967-5.31-1.326-6.2a9.371,9.371,0,0,0-7.608.713,18.741,18.741,0,0,0-5.493,4.24,31.691,31.691,0,0,1,5.31-3.205,11.029,11.029,0,0,1,6.94-.761C430.379,405.332,432.071,407.786,430.427,410Z" transform="translate(-320.028 -390.568)" fill="#f2cfbb"/>
      <g id="Grupo_98" data-name="Grupo 98" transform="translate(98.918 23.27)">
        <path id="Caminho_134" data-name="Caminho 134" d="M428.4,519.365c2.351-.156,3.377-3.077,2.128-4.885s-3.228-1.992-5.056-2.95S423.9,507.778,422,507c1.542,1.328,1.151,3.4,2.375,4.919s2.92,1.72,4.452,2.842A2.711,2.711,0,0,1,428.4,519.365Z" transform="translate(-422 -507)" fill="#f2cfbb"/>
      </g>
      <path id="Caminho_138" data-name="Caminho 138" d="M5.028,2C5.028,4.324,3.772,6.4,2,6.4c1.772,0,3.028,2.08,3.028,4.4,0-2.324,1.256-4.4,3.028-4.4C6.284,6.4,5.028,4.324,5.028,2" transform="translate(42.169 24.257)" fill="#fff0e5"/>
      <path id="Caminho_139" data-name="Caminho 139" d="M4.587,2C4.587,3.986,3.514,5.764,2,5.764c1.514,0,2.587,1.777,2.587,3.764,0-1.986,1.073-3.764,2.587-3.764C5.661,5.764,4.587,3.986,4.587,2" transform="translate(50.494 26.637)" fill="#fff0e5"/>
      <path id="Caminho_140" data-name="Caminho 140" d="M4.587,2C4.587,3.986,3.514,5.764,2,5.764c1.514,0,2.587,1.777,2.587,3.764,0-1.986,1.073-3.764,2.587-3.764C5.661,5.764,4.587,3.986,4.587,2" transform="translate(54.988 16.061)" fill="#fff0e5"/>
      <path id="Caminho_142" data-name="Caminho 142" d="M4.141,2c0,1.644-.888,3.114-2.141,3.114,1.253,0,2.141,1.471,2.141,3.114,0-1.644.888-3.114,2.141-3.114C5.029,5.114,4.141,3.644,4.141,2" transform="translate(43.049 41.692)" fill="#fff0e5"/>
      <path id="Caminho_143" data-name="Caminho 143" d="M4.141,2c0,1.644-.888,3.114-2.141,3.114,1.253,0,2.141,1.471,2.141,3.114,0-1.644.888-3.114,2.141-3.114C5.029,5.114,4.141,3.644,4.141,2" transform="translate(107.538 39.905)" fill="#fff0e5"/>
      <path id="Caminho_144" data-name="Caminho 144" d="M3.117,2c0,.858-.464,1.625-1.117,1.625.654,0,1.117.767,1.117,1.625,0-.858.464-1.625,1.117-1.625-.654,0-1.117-.767-1.117-1.625" transform="translate(51.611 38.869)" fill="#fff0e5"/>
      <path id="Caminho_145" data-name="Caminho 145" d="M3.035,2c0,.795-.429,1.505-1.035,1.505.606,0,1.035.711,1.035,1.505,0-.794.429-1.505,1.035-1.505-.606,0-1.035-.711-1.035-1.505" transform="translate(119.931 31.682)" fill="#f9ece3"/>
      <path id="Caminho_146" data-name="Caminho 146" d="M2.748,2c0,.575-.311,1.089-.748,1.089.438,0,.748.514.748,1.089,0-.575.311-1.089.748-1.089-.438,0-.748-.514-.748-1.089" transform="translate(124.109 35.858)" fill="#f9ece3"/>
      <path id="Caminho_147" data-name="Caminho 147" d="M2.748,2c0,.575-.311,1.089-.748,1.089.438,0,.748.514.748,1.089,0-.575.311-1.089.748-1.089-.438,0-.748-.514-.748-1.089" transform="translate(100.704 45.743)" fill="#f9ece3"/>
      <path id="Caminho_148" data-name="Caminho 148" d="M2.748,2c0,.575-.311,1.089-.748,1.089.438,0,.748.514.748,1.089,0-.575.311-1.089.748-1.089-.438,0-.748-.514-.748-1.089" transform="translate(101.077 40.335)" fill="#f9ece3"/>
      <path id="Caminho_149" data-name="Caminho 149" d="M2.748,2c0,.575-.311,1.089-.748,1.089.438,0,.748.514.748,1.089,0-.575.311-1.089.748-1.089-.438,0-.748-.514-.748-1.089" transform="translate(93.224 27.115)" fill="#f9ece3"/>
      <path id="Caminho_150" data-name="Caminho 150" d="M2.748,2c0,.575-.311,1.089-.748,1.089.438,0,.748.514.748,1.089,0-.575.311-1.089.748-1.089-.438,0-.748-.514-.748-1.089" transform="translate(63.799 23.169)" fill="#fff0e5"/>
      <path id="Caminho_151" data-name="Caminho 151" d="M2.574,2c0,.44-.238.835-.574.835.336,0,.574.394.574.835,0-.44.238-.835.574-.835-.336,0-.574-.394-.574-.835" transform="translate(48.754 14.973)" fill="#fff0e5"/>
      <path id="Caminho_152" data-name="Caminho 152" d="M2.574,2c0,.44-.238.835-.574.835.336,0,.574.394.574.835,0-.44.238-.835.574-.835-.336,0-.574-.394-.574-.835" transform="translate(36.063 17.088)" fill="#fff0e5"/>
      <path id="Caminho_153" data-name="Caminho 153" d="M2.574,2c0,.44-.238.835-.574.835.336,0,.574.394.574.835,0-.44.238-.835.574-.835-.336,0-.574-.394-.574-.835" transform="translate(31.833 32.801)" fill="#fff0e5"/>
      <path id="Caminho_154" data-name="Caminho 154" d="M2.574,2c0,.44-.238.835-.574.835.336,0,.574.394.574.835,0-.44.238-.835.574-.835-.336,0-.574-.394-.574-.835" transform="translate(29.453 35.858)" fill="#fff0e5"/>
      <path id="Caminho_155" data-name="Caminho 155" d="M2.574,2c0,.44-.238.835-.574.835.336,0,.574.394.574.835,0-.44.238-.835.574-.835-.336,0-.574-.394-.574-.835" transform="translate(38.36 41.423)" fill="#fff0e5"/>
      <path id="Caminho_156" data-name="Caminho 156" d="M2.574,2c0,.44-.238.835-.574.835.336,0,.574.394.574.835,0-.44.238-.835.574-.835-.336,0-.574-.394-.574-.835" transform="translate(54.223 46.251)" fill="#fff0e5"/>
      <path id="Caminho_157" data-name="Caminho 157" d="M4.587,2C4.587,3.986,3.514,5.764,2,5.764c1.514,0,2.587,1.777,2.587,3.764,0-1.986,1.073-3.764,2.587-3.764C5.661,5.764,4.587,3.986,4.587,2" transform="translate(50.494 26.637)" fill="#fff0e5"/>
      <path id="União_2" data-name="União 2" d="M58.112,18.51a16.6,16.6,0,0,1-1.828-.2,14.2,14.2,0,0,1-3.665-1.067,13.2,13.2,0,0,1-3.069-2.114,14.254,14.254,0,0,1-1.233-1.246L0,13.854V12.745H39.953l4.7-3.791A16.339,16.339,0,0,1,45.76,6.588a15.556,15.556,0,0,1,1.408-2.1,10.673,10.673,0,0,1,2-1.946A11.25,11.25,0,0,1,51.67,1.2,17.589,17.589,0,0,1,54.188.432,19.283,19.283,0,0,1,56.911,0V0a22.1,22.1,0,0,1-1.165,2.612,18.869,18.869,0,0,1-1.4,2.29,11,11,0,0,1-1.9,2.073,9.207,9.207,0,0,1-2.275,1.347,12.512,12.512,0,0,1-2.237.693,12.847,12.847,0,0,1-2.383.294l-4.4,3.7h7.165a18.606,18.606,0,0,1,2.012.354,13.383,13.383,0,0,1,3.758,1.413,14.561,14.561,0,0,1,2.886,2.394,15.884,15.884,0,0,1,1.14,1.335h0Zm-4.884-1.978A16.233,16.233,0,0,0,56.8,17.87a9.811,9.811,0,0,0-2.81-2.35,16.874,16.874,0,0,0-4.263-1.348A26.96,26.96,0,0,0,53.228,16.532ZM47.706,8.19c.3-.077.611-.17.921-.276A11.215,11.215,0,0,0,51.7,6.322a13.128,13.128,0,0,0,2.54-2.676c.217-.3.425-.6.616-.9ZM52.6,2.078A14.611,14.611,0,0,0,49.23,4.12a12.011,12.011,0,0,0-2.508,2.986c.341-.279,1.3-1.065,2.817-2.329C50.965,3.592,52.7,2.305,53.6,1.644,53.261,1.782,52.922,1.929,52.6,2.078Zm2.257.664h0Zm4.621,10.683c-.118,0-.237,0-.355-.007a14.6,14.6,0,0,1-3.047-.491,27.644,27.644,0,0,1-2.9-.937c-1.741-.662-3.013-1.312-3.025-1.318l.009,0c.235-.093,1.488-.579,3.111-1.057,1.046-.308,2.043-.553,2.962-.729a16.6,16.6,0,0,1,3.064-.332c.125,0,.25,0,.37.007a8.978,8.978,0,0,1,2.6.483,9.107,9.107,0,0,1,1.908.921,7.651,7.651,0,0,1,1.579,1.294h0A9.437,9.437,0,0,1,64,12.341a10.853,10.853,0,0,1-1.981.746,9.874,9.874,0,0,1-2.544.339Zm-6.115-2.641c.006,0,.826.422,1.957.853a13.169,13.169,0,0,0,3.849.924c.077,0,.154,0,.229,0a6.717,6.717,0,0,0,2.928-.7,6.008,6.008,0,0,0,1.128-.7,4.886,4.886,0,0,0-1.021-.837,5.854,5.854,0,0,0-2.914-.908c-.078,0-.158,0-.239,0A20.006,20.006,0,0,0,53.358,10.784Z" transform="translate(97.801 42.293)" fill="#ebbba2" stroke="#ebbba2" stroke-width="1"/>
      <path id="União_3" data-name="União 3" d="M58.112,0a16.6,16.6,0,0,0-1.828.2,14.2,14.2,0,0,0-3.665,1.067A13.2,13.2,0,0,0,49.55,3.381a14.255,14.255,0,0,0-1.233,1.246L0,4.655V5.765H39.953l4.7,3.791a16.336,16.336,0,0,0,1.109,2.366,15.556,15.556,0,0,0,1.408,2.1,10.672,10.672,0,0,0,2,1.946,11.25,11.25,0,0,0,2.5,1.342,17.588,17.588,0,0,0,2.518.769,19.282,19.282,0,0,0,2.723.432v0a22.1,22.1,0,0,0-1.165-2.612,18.861,18.861,0,0,0-1.4-2.29,11,11,0,0,0-1.9-2.073,9.206,9.206,0,0,0-2.275-1.347,12.512,12.512,0,0,0-2.237-.693,12.847,12.847,0,0,0-2.383-.294l-4.4-3.7h7.165a18.606,18.606,0,0,0,2.012-.354A13.383,13.383,0,0,0,54.087,3.73a14.56,14.56,0,0,0,2.886-2.394A15.889,15.889,0,0,0,58.113,0h0ZM53.228,1.978A16.234,16.234,0,0,1,56.8.64a9.812,9.812,0,0,1-2.81,2.35,16.875,16.875,0,0,1-4.263,1.348A26.96,26.96,0,0,1,53.228,1.978Zm-5.522,8.342c.3.077.611.17.921.276a11.214,11.214,0,0,1,3.07,1.593,13.127,13.127,0,0,1,2.54,2.676c.217.3.424.6.616.9ZM52.6,16.431a14.61,14.61,0,0,1-3.365-2.042A12.011,12.011,0,0,1,46.722,11.4c.34.279,1.3,1.065,2.817,2.329C50.965,14.918,52.7,16.2,53.6,16.866,53.261,16.727,52.922,16.581,52.6,16.431Zm2.257-.664h0ZM59.473,5.084c-.118,0-.237,0-.355.007a14.6,14.6,0,0,0-3.047.491,27.648,27.648,0,0,0-2.9.937c-1.741.662-3.013,1.312-3.025,1.318l.009,0c.235.093,1.488.579,3.111,1.057,1.046.308,2.043.553,2.962.729a16.6,16.6,0,0,0,3.064.332c.125,0,.25,0,.37-.007a8.978,8.978,0,0,0,2.6-.483,9.1,9.1,0,0,0,1.908-.921,7.651,7.651,0,0,0,1.579-1.294h0A9.439,9.439,0,0,0,64,6.169a10.853,10.853,0,0,0-1.981-.746,9.874,9.874,0,0,0-2.544-.339ZM53.358,7.725c.006,0,.826-.422,1.957-.853a13.169,13.169,0,0,1,3.849-.924c.077,0,.154,0,.229,0a6.718,6.718,0,0,1,2.928.7,6.009,6.009,0,0,1,1.128.7,4.888,4.888,0,0,1-1.021.837,5.854,5.854,0,0,1-2.914.908c-.078,0-.158,0-.239,0A20.006,20.006,0,0,1,53.358,7.725Z" transform="translate(66.138 60.803) rotate(180)" fill="#ebbba2" stroke="#ebbba2" stroke-width="1"/>
    </g>
  </g>
</svg>
